<?xml version="1.0" encoding="utf-8" standalone="no"?>
<!DOCTYPE svg PUBLIC "-//W3C//DTD SVG 1.1//EN"
  "http://www.w3.org/Graphics/SVG/1.1/DTD/svg11.dtd">
<!-- Created with matplotlib (https://matplotlib.org/) -->
<svg height="202.263872pt" version="1.1" viewBox="0 0 371.52 202.263872" width="371.52pt" xmlns="http://www.w3.org/2000/svg" xmlns:xlink="http://www.w3.org/1999/xlink">
 <defs>
  <style type="text/css">
*{stroke-linecap:butt;stroke-linejoin:round;}
  </style>
 </defs>
 <g id="figure_1">
  <g id="patch_1">
   <path d="M 0 202.263872 
L 371.52 202.263872 
L 371.52 0 
L 0 0 
z
" style="fill:#ffffff;"/>
  </g>
  <g id="axes_1">
   <g id="PathCollection_1">
    <defs>
     <path d="M 0 5 
C 1.326016 5 2.597899 4.473168 3.535534 3.535534 
C 4.473168 2.597899 5 1.326016 5 0 
C 5 -1.326016 4.473168 -2.597899 3.535534 -3.535534 
C 2.597899 -4.473168 1.326016 -5 0 -5 
C -1.326016 -5 -2.597899 -4.473168 -3.535534 -3.535534 
C -4.473168 -2.597899 -5 -1.326016 -5 0 
C -5 1.326016 -4.473168 2.597899 -3.535534 3.535534 
C -2.597899 4.473168 -1.326016 5 0 5 
z
" id="m3a810c84a4" style="stroke:#6495ed;"/>
    </defs>
    <g clip-path="url(#p15f3a2abd5)">
     <use style="fill:#6495ed;stroke:#6495ed;" x="185.76" xlink:href="#m3a810c84a4" y="101.131936"/>
    </g>
   </g>
   <g id="line2d_1">
    <path clip-path="url(#p15f3a2abd5)" d="M 271.152775 101.131936 
L 271.044704 96.837143 
L 270.720765 92.553221 
L 270.181778 88.291013 
L 269.429108 84.061307 
L 268.464658 79.874809 
L 267.290872 75.742116 
L 265.910718 71.673689 
L 264.327692 67.679824 
L 262.545799 63.770632 
L 260.56955 59.956007 
L 258.403948 56.245604 
L 256.054473 52.648815 
L 253.527072 49.174743 
L 250.828143 45.832183 
L 247.964518 42.629595 
L 244.943443 39.575084 
L 241.772567 36.676383 
L 238.459914 33.940828 
L 235.013871 31.375344 
L 231.443159 28.986424 
L 227.756816 26.780114 
L 223.964173 24.762 
L 220.07483 22.937189 
L 216.09863 21.310301 
L 212.04564 19.885452 
L 207.926116 18.666251 
L 203.750487 17.655782 
L 199.529322 16.856603 
L 195.273304 16.270738 
L 190.993207 15.899668 
L 186.699864 15.744334 
L 182.404141 15.805128 
L 178.116913 16.081897 
L 173.849031 16.573939 
L 169.611297 17.280011 
L 165.414438 18.198324 
L 161.269076 19.326553 
L 157.185705 20.661845 
L 153.174659 22.200817 
L 149.246091 23.939576 
L 145.409946 25.87372 
L 141.675932 27.998353 
L 138.053501 30.308099 
L 134.551823 32.797109 
L 131.17976 35.459085 
L 127.945847 38.287289 
L 124.858271 41.274561 
L 121.924845 44.413341 
L 119.152996 47.695684 
L 116.549739 51.113282 
L 114.121663 54.657485 
L 111.874914 58.319321 
L 109.815179 62.089522 
L 107.947671 65.958546 
L 106.277117 69.916598 
L 104.807747 73.95366 
L 103.543278 78.059515 
L 102.486912 82.22377 
L 101.641322 86.435884 
L 101.008649 90.685195 
L 100.590493 94.960949 
L 100.387914 99.252323 
L 100.401425 103.548454 
L 100.63099 107.838469 
L 101.076029 112.111508 
L 101.735415 116.356757 
L 102.60748 120.563469 
L 103.690017 124.720997 
L 104.980284 128.818818 
L 106.475016 132.846559 
L 108.170431 136.794026 
L 110.062235 140.651227 
L 112.145642 144.408399 
L 114.415378 148.056032 
L 116.865697 151.584894 
L 119.490397 154.986051 
L 122.282836 158.250896 
L 125.235944 161.371165 
L 128.342248 164.338959 
L 131.593884 167.146767 
L 134.982623 169.787482 
L 138.499887 172.25442 
L 142.136773 174.541336 
L 145.884075 176.642443 
L 149.73231 178.552421 
L 153.671735 180.266437 
L 157.692381 181.780152 
L 161.78407 183.089735 
L 165.936446 184.19187 
L 170.138997 185.083769 
L 174.381088 185.763173 
L 178.651981 186.228364 
L 182.940865 186.478163 
L 187.236885 186.511938 
L 191.529166 186.329604 
L 195.806845 185.931623 
L 200.059094 185.319001 
L 204.275149 184.493289 
L 208.44434 183.456578 
L 212.556114 182.211491 
L 216.600063 180.76118 
L 220.565952 179.109316 
L 224.443741 177.260079 
L 228.223616 175.218151 
L 231.89601 172.9887 
L 235.451626 170.57737 
L 238.881466 167.990262 
L 242.176848 165.233927 
L 245.32943 162.31534 
L 248.331234 159.241889 
L 251.174661 156.021354 
L 253.852513 152.661885 
L 256.358014 149.171986 
L 258.684821 145.560491 
L 260.827044 141.836541 
L 262.779262 138.009562 
L 264.536533 134.08924 
L 266.094409 130.085498 
L 267.448947 126.008471 
L 268.596718 121.868477 
L 269.534817 117.675996 
L 270.260871 113.44164 
L 270.77304 109.176126 
L 271.070029 104.890252 
L 271.152775 101.131936 
L 271.152775 101.131936 
" style="fill:none;stroke:#6495ed;stroke-linecap:square;stroke-width:2;"/>
   </g>
   <g id="line2d_2">
    <path clip-path="url(#p15f3a2abd5)" d="M 263.020129 101.131936 
L 262.896386 96.76094 
L 262.525551 92.403946 
L 261.908813 88.074911 
L 261.048147 83.787701 
L 259.946311 79.55605 
L 258.606834 75.393512 
L 257.034006 71.313423 
L 255.232866 67.328852 
L 253.209183 63.452562 
L 250.969441 59.69697 
L 248.520813 56.074107 
L 245.871143 52.595578 
L 243.028919 49.272525 
L 240.003246 46.115594 
L 236.803815 43.134897 
L 233.440875 40.339981 
L 229.925199 37.739801 
L 226.268049 35.342685 
L 222.481139 33.156311 
L 218.5766 31.187684 
L 214.56694 29.44311 
L 210.465002 27.928176 
L 206.283927 26.647736 
L 202.037108 25.605892 
L 197.738148 24.80598 
L 193.400818 24.250563 
L 189.039013 23.941421 
L 184.666704 23.879542 
L 180.297897 24.065127 
L 175.946587 24.49758 
L 171.626712 25.175516 
L 167.35211 26.096763 
L 163.136475 27.25837 
L 158.993309 28.656617 
L 154.935885 30.287024 
L 150.9772 32.144369 
L 147.129935 34.222701 
L 143.406414 36.515364 
L 139.818564 39.015014 
L 136.377878 41.713642 
L 133.095378 44.602606 
L 129.981579 47.672649 
L 127.046454 50.913939 
L 124.299407 54.316093 
L 121.749237 57.868212 
L 119.404113 61.558917 
L 117.271546 65.376387 
L 115.358369 69.308392 
L 113.670709 73.342338 
L 112.213973 77.465303 
L 110.992827 81.664078 
L 110.011183 85.925216 
L 109.272185 90.235064 
L 108.778201 94.579819 
L 108.530813 98.945563 
L 108.530813 103.318309 
L 108.778201 107.684053 
L 109.272185 112.028808 
L 110.011183 116.338657 
L 110.992827 120.599794 
L 112.213973 124.798569 
L 113.670709 128.921534 
L 115.358369 132.95548 
L 117.271546 136.887485 
L 119.404113 140.704955 
L 121.749237 144.395661 
L 124.299407 147.947779 
L 127.046454 151.349933 
L 129.981579 154.591223 
L 133.095378 157.661266 
L 136.377878 160.55023 
L 139.818564 163.248858 
L 143.406414 165.748508 
L 147.129935 168.041171 
L 150.9772 170.119503 
L 154.935885 171.976848 
L 158.993309 173.607255 
L 163.136475 175.005502 
L 167.35211 176.167109 
L 171.626712 177.088356 
L 175.946587 177.766292 
L 180.297897 178.198745 
L 184.666704 178.38433 
L 189.039013 178.322452 
L 193.400818 178.013309 
L 197.738148 177.457892 
L 202.037108 176.65798 
L 206.283927 175.616136 
L 210.465002 174.335696 
L 214.56694 172.820762 
L 218.5766 171.076188 
L 222.481139 169.107561 
L 226.268049 166.921187 
L 229.925199 164.524071 
L 233.440875 161.923891 
L 236.803815 159.128976 
L 240.003246 156.148278 
L 243.028919 152.991347 
L 245.871143 149.668294 
L 248.520813 146.189765 
L 250.969441 142.566902 
L 253.209183 138.811311 
L 255.232866 134.93502 
L 257.034006 130.950449 
L 258.606834 126.87036 
L 259.946311 122.707823 
L 261.048147 118.476171 
L 261.908813 114.188961 
L 262.525551 109.859926 
L 262.896386 105.502932 
L 263.020129 101.131936 
L 263.020129 101.131936 
" style="fill:none;stroke:#6495ed;stroke-linecap:square;stroke-width:2;"/>
   </g>
   <g id="line2d_3">
    <path clip-path="url(#p15f3a2abd5)" d="M 271.152775 101.131936 
L 271.04496 98.273262 
L 270.724846 95.448699 
L 270.202289 92.691034 
L 269.493274 90.030453 
L 268.619274 87.493379 
L 267.334884 84.528166 
L 265.892261 81.819126 
L 264.354955 79.3807 
L 262.476023 76.808333 
L 259.802419 73.594518 
L 256.91586 70.12701 
L 255.853176 68.523877 
L 255.038609 66.867172 
L 254.427852 65.060329 
L 253.875657 62.659418 
L 252.322146 55.17681 
L 251.366811 52.016305 
L 250.299577 49.243993 
L 248.947003 46.402875 
L 247.644471 44.121762 
L 246.141343 41.869618 
L 244.44041 39.680284 
L 242.551026 37.586536 
L 240.488775 35.618805 
L 238.274879 33.803976 
L 235.935378 32.16434 
L 233.500121 30.716722 
L 231.001601 29.471838 
L 228.473686 28.433891 
L 225.950293 27.600427 
L 222.851911 26.831881 
L 219.869229 26.337505 
L 216.509616 26.043797 
L 212.964082 25.993471 
L 204.500005 26.069578 
L 202.674776 25.742477 
L 200.889446 25.166412 
L 198.715321 24.178728 
L 190.207052 19.959803 
L 187.560084 18.971597 
L 184.665086 18.118113 
L 181.545984 17.459811 
L 178.914672 17.109749 
L 176.189578 16.941251 
L 173.400072 16.971446 
L 170.578411 17.211467 
L 167.758485 17.665993 
L 164.974501 18.333053 
L 162.259653 19.204093 
L 159.644831 20.264312 
L 157.157423 21.493244 
L 154.820261 22.865571 
L 152.136031 24.73793 
L 149.733806 26.726074 
L 147.618149 28.764845 
L 145.440321 31.188756 
L 143.063613 34.222701 
L 139.5744 38.803113 
L 138.241833 40.171954 
L 136.792973 41.315806 
L 135.145497 42.301839 
L 132.896985 43.37283 
L 126.344486 46.361162 
L 123.486044 47.970246 
L 121.023944 49.603315 
L 118.552829 51.528515 
L 116.612924 53.285385 
L 114.742334 55.23209 
L 112.973624 57.359066 
L 111.336994 59.650535 
L 109.859089 62.08509 
L 108.561946 64.636518 
L 107.462132 67.27481 
L 106.570093 69.96733 
L 105.889756 72.680082 
L 105.418393 75.379036 
L 105.146745 78.031457 
L 105.06405 81.235923 
L 105.227039 84.270379 
L 105.583111 87.0965 
L 106.180583 90.180218 
L 107.196878 94.164337 
L 108.189231 98.146097 
L 108.456682 100.054234 
L 108.477795 101.900482 
L 108.2498 103.791054 
L 107.710797 106.188187 
L 105.864693 113.58231 
L 105.349529 116.836362 
L 105.102503 119.79132 
L 105.081228 122.933216 
L 105.258429 125.550849 
L 105.628382 128.230497 
L 106.203476 130.940554 
L 106.989739 133.647472 
L 107.986571 136.317074 
L 109.18675 138.915878 
L 110.576704 141.412409 
L 112.137037 143.778419 
L 113.843287 145.989982 
L 115.666889 148.028417 
L 117.576305 149.880995 
L 120.033014 151.926377 
L 122.506285 153.67424 
L 125.408545 155.405499 
L 128.586863 156.997426 
L 136.269304 160.605882 
L 137.776295 161.688416 
L 139.137262 162.976455 
L 140.667255 164.802162 
L 146.482165 172.278166 
L 148.430406 174.316452 
L 150.6602 176.342792 
L 153.176681 178.292382 
L 155.389415 179.753287 
L 157.765994 181.092368 
L 160.287591 182.281321 
L 162.930143 183.295955 
L 165.665282 184.117152 
L 168.461426 184.731627 
L 171.285003 185.132451 
L 174.101761 185.319319 
L 176.878096 185.298553 
L 179.582359 185.082837 
L 182.186085 184.690701 
L 185.262998 183.988824 
L 188.109814 183.10339 
L 191.194015 181.885367 
L 194.330748 180.389731 
L 200.889446 177.09746 
L 202.674776 176.521395 
L 204.500005 176.194294 
L 206.46558 176.081484 
L 209.857129 176.167382 
L 214.937556 176.271538 
L 218.155666 176.109138 
L 221.045084 175.758976 
L 224.080436 175.159516 
L 227.209339 174.271862 
L 229.739184 173.336877 
L 232.256669 172.195352 
L 234.727735 170.848163 
L 237.11904 169.302801 
L 239.399257 167.573106 
L 241.540306 165.67873 
L 243.51844 163.644382 
L 245.315169 161.498861 
L 246.917963 159.273928 
L 248.320725 157.003055 
L 249.794336 154.151394 
L 250.972161 151.34456 
L 251.884562 148.640136 
L 252.690766 145.596603 
L 253.508983 141.555444 
L 254.34117 137.525124 
L 254.924294 135.685028 
L 255.701002 134.00962 
L 256.720575 132.404772 
L 258.239148 130.481613 
L 263.414082 124.216355 
L 265.285062 121.452859 
L 266.773335 118.851228 
L 268.128409 115.985741 
L 269.075363 113.51887 
L 269.869866 110.917017 
L 270.488011 108.20433 
L 270.910974 105.409251 
L 271.125769 102.563421 
L 271.152775 101.131936 
L 271.152775 101.131936 
" style="fill:none;stroke:#6495ed;stroke-linecap:square;stroke-width:2;"/>
   </g>
   <g id="line2d_4">
    <path clip-path="url(#p15f3a2abd5)" d="M 263.020129 101.131936 
L 263.146129 99.272699 
L 263.507577 97.308474 
L 264.489916 93.551459 
L 265.500785 89.441764 
L 266.060522 86.27226 
L 266.364699 83.380435 
L 266.459079 80.29035 
L 266.293942 77.044237 
L 265.948887 74.370666 
L 265.399898 71.662603 
L 264.640136 68.953423 
L 263.669364 66.277299 
L 262.493988 63.667871 
L 261.126808 61.156934 
L 259.58653 58.773202 
L 257.897031 56.541196 
L 256.086423 54.480296 
L 254.185937 52.604007 
L 251.734473 50.528481 
L 249.259965 48.751426 
L 246.825375 47.256276 
L 244.035382 45.789171 
L 240.273023 44.088464 
L 236.522773 42.379561 
L 234.855753 41.402897 
L 233.393193 40.275116 
L 232.054548 38.926926 
L 230.518027 37.02226 
L 225.570127 30.590233 
L 223.296864 28.151761 
L 221.095722 26.121341 
L 218.60768 24.161134 
L 216.416461 22.687154 
L 214.059448 21.331225 
L 211.554763 20.122088 
L 208.925857 19.084507 
L 206.200618 18.238278 
L 203.410293 17.59745 
L 200.588273 17.169766 
L 197.768799 16.956365 
L 194.985628 16.951743 
L 192.270722 17.14399 
L 189.653009 17.51527 
L 186.554816 18.195631 
L 183.683797 19.065396 
L 180.56887 20.272995 
L 177.397489 21.768038 
L 170.182155 25.334453 
L 168.396757 25.84678 
L 166.545415 26.115834 
L 164.173031 26.180476 
L 154.196247 26.091038 
L 151.359171 26.375763 
L 148.362568 26.89578 
L 145.255665 27.693673 
L 142.729883 28.552337 
L 140.203776 29.616154 
L 137.711328 30.886745 
L 135.286305 32.359082 
L 132.96094 34.021657 
L 130.764665 35.856921 
L 128.722971 37.841958 
L 126.856414 39.949378 
L 125.179827 42.14839 
L 123.701758 44.406013 
L 122.135685 47.258872 
L 120.871664 50.085552 
L 119.88364 52.826232 
L 119.005668 55.930314 
L 118.20767 59.653832 
L 117.135928 64.900358 
L 116.539247 66.72356 
L 115.743773 68.389283 
L 114.702698 69.992905 
L 113.159226 71.925887 
L 108.576124 77.41645 
L 106.697778 80.0836 
L 105.182062 82.603772 
L 103.78039 85.391902 
L 102.783306 87.802968 
L 101.928588 90.356771 
L 101.241811 93.03102 
L 100.743805 95.798764 
L 100.449821 98.629423 
L 100.368914 101.489975 
L 100.503585 104.346236 
L 100.849673 107.164188 
L 101.396532 109.911303 
L 102.127448 112.557802 
L 103.02032 115.077807 
L 104.323279 118.018501 
L 105.778281 120.700866 
L 107.321483 123.112055 
L 109.199128 125.653262 
L 111.855944 128.828779 
L 114.702698 132.270967 
L 115.743773 133.874589 
L 116.539247 135.540312 
L 117.135928 137.363514 
L 117.68072 139.790248 
L 119.131948 146.834106 
L 120.060892 149.976289 
L 121.101345 152.738587 
L 122.424164 155.575505 
L 123.701758 157.857859 
L 125.179827 160.115482 
L 126.856414 162.314494 
L 128.722971 164.421914 
L 130.764665 166.406951 
L 132.96094 168.242215 
L 135.286305 169.90479 
L 137.711328 171.377127 
L 140.203776 172.647718 
L 142.729883 173.711535 
L 145.255665 174.570199 
L 148.362568 175.368092 
L 151.359171 175.888109 
L 154.196247 176.172834 
L 157.339238 176.279047 
L 161.455379 176.176133 
L 165.563971 176.092644 
L 167.485729 176.254089 
L 169.291168 176.64142 
L 171.083123 177.281355 
L 173.298089 178.337087 
L 180.085663 181.779407 
L 183.139099 183.007081 
L 185.961501 183.907566 
L 189.016777 184.630406 
L 191.606135 185.043029 
L 194.29931 185.281923 
L 197.068313 185.327877 
L 199.881828 185.167443 
L 202.706426 184.793484 
L 205.507861 184.205471 
L 208.252406 183.409514 
L 210.90816 182.418128 
L 213.44629 181.249737 
L 215.842142 179.927948 
L 218.076188 178.48061 
L 220.620997 176.542286 
L 222.879495 174.520676 
L 224.855206 172.480746 
L 226.880988 170.094866 
L 229.590763 166.495697 
L 231.836776 163.586421 
L 233.163958 162.19666 
L 234.599695 161.036265 
L 236.228031 160.040239 
L 238.449689 158.967897 
L 245.407646 155.781849 
L 248.277992 154.142892 
L 250.743807 152.481451 
L 253.212303 150.526297 
L 255.145374 148.745396 
L 257.004973 146.775503 
L 258.758763 144.62698 
L 260.376925 142.316348 
L 261.833335 139.865662 
L 263.106597 137.301669 
L 264.18088 134.654773 
L 265.046535 131.957852 
L 265.700464 129.244978 
L 266.146226 126.55009 
L 266.393872 123.905673 
L 266.449913 120.716117 
L 266.265099 117.700992 
L 265.801249 114.364146 
L 265.059955 110.901118 
L 263.107925 102.676774 
L 263.020129 101.131936 
L 263.020129 101.131936 
" style="fill:none;stroke:#6495ed;stroke-linecap:square;stroke-width:2;"/>
   </g>
   <g id="line2d_5">
    <path clip-path="url(#p15f3a2abd5)" d="M 23.432727 101.131872 
L 120.796528 101.204606 
L 146.847043 101.327671 
L 151.405883 101.101346 
L 154.662198 100.722051 
L 157.267249 100.209801 
L 159.546669 99.553578 
L 161.826089 98.654501 
L 164.105509 97.495558 
L 168.664349 95.036766 
L 169.966875 94.646777 
L 170.943769 94.550111 
L 171.920664 94.651195 
L 172.897558 94.96167 
L 173.874452 95.476523 
L 175.176978 96.440629 
L 176.805135 97.952821 
L 179.735818 100.714533 
L 181.038344 101.584094 
L 182.015238 101.967573 
L 182.992133 102.067812 
L 183.969027 101.847892 
L 184.945921 101.279822 
L 185.922816 100.341748 
L 186.89971 99.014057 
L 187.876604 97.27579 
L 188.853499 95.102919 
L 189.830393 92.469866 
L 191.132919 88.207013 
L 192.435445 83.074759 
L 194.063602 75.546586 
L 196.343022 63.669677 
L 198.622442 51.947618 
L 199.924968 46.169193 
L 200.901862 42.555671 
L 201.878756 39.685386 
L 202.855651 37.630856 
L 203.506913 36.732798 
L 204.158176 36.21449 
L 204.809439 36.070774 
L 205.460702 36.290837 
L 206.111965 36.858972 
L 206.763228 37.755293 
L 207.740122 39.663145 
L 208.717017 42.165446 
L 210.019542 46.250803 
L 211.647699 52.201962 
L 217.834697 75.923186 
L 219.462854 81.106775 
L 221.091011 85.580996 
L 222.719168 89.31627 
L 224.021694 91.784225 
L 225.32422 93.821924 
L 226.626746 95.473829 
L 227.929271 96.791777 
L 229.231797 97.829023 
L 230.859954 98.806907 
L 232.488112 99.509636 
L 234.4419 100.085064 
L 236.72132 100.497259 
L 239.652003 100.773937 
L 244.210843 100.949505 
L 253.979787 101.051819 
L 288.171088 101.094161 
L 348.087273 101.093637 
L 348.087273 101.093637 
" style="fill:none;stroke:#000000;stroke-linecap:square;stroke-width:2;"/>
   </g>
   <g id="text_1">
    <!-- $z\:{\rmELDA}$ -->
    <defs>
     <path d="M 38 41.703125 
L 9.09375 7.296875 
Q 13.703125 6.296875 15.953125 4.796875 
Q 18.203125 3.296875 21.09375 -1 
Q 24.5 -6 28.09375 -6 
Q 30.796875 -6 30.796875 -4.5 
Q 30.796875 -4 30.296875 -3 
Q 29.5 -1.40625 29.5 -0.203125 
Q 29.59375 1.09375 30.59375 2.140625 
Q 31.59375 3.203125 32.796875 3.203125 
Q 34.40625 3.203125 35.34375 2.203125 
Q 36.296875 1.203125 36.296875 -0.5 
Q 36.296875 -3.59375 33.6875 -5.84375 
Q 31.09375 -8.09375 27 -8.09375 
Q 22.796875 -8.09375 15.703125 -3.703125 
Q 8.90625 0.5 5.203125 0.5 
Q 2.90625 0.5 0.703125 -1.296875 
L -0.203125 -0.40625 
L 30.796875 36.796875 
L 17.203125 36.796875 
Q 13.203125 36.796875 11.390625 35.640625 
Q 9.59375 34.5 8.09375 30.796875 
L 6.5 31.203125 
L 9.703125 42.796875 
L 38 42.796875 
z
" id="STIXGeneral-Italic-122"/>
     <path d="M 59.703125 16.90625 
L 55.09375 0 
L 1.203125 0 
L 1.203125 1.90625 
Q 6.90625 2.296875 8.40625 3.9375 
Q 9.90625 5.59375 9.90625 11.40625 
L 9.90625 55 
Q 9.90625 60.59375 8.34375 62.296875 
Q 6.796875 64 1.203125 64.296875 
L 1.203125 66.203125 
L 54.203125 66.203125 
L 54.59375 51.90625 
L 52.09375 51.90625 
Q 51 58.59375 48.203125 60.5 
Q 45.40625 62.40625 36.703125 62.40625 
L 23.59375 62.40625 
Q 21.40625 62.40625 20.75 61.75 
Q 20.09375 61.09375 20.09375 58.796875 
L 20.09375 36.796875 
L 35.203125 36.796875 
Q 41.5 36.796875 43.546875 38.59375 
Q 45.59375 40.40625 46.5 46.40625 
L 48.796875 46.40625 
L 48.796875 23 
L 46.5 23 
Q 45.59375 29.296875 43.59375 31 
Q 41.59375 32.703125 35.203125 32.703125 
L 20.09375 32.703125 
L 20.09375 8.40625 
Q 20.09375 5.40625 22.1875 4.546875 
Q 24.296875 3.703125 30.203125 3.703125 
L 33.796875 3.703125 
Q 44.5 3.703125 49 6.296875 
Q 53.5 8.90625 56.90625 16.90625 
z
" id="STIXGeneral-Regular-69"/>
     <path d="M 59.796875 17.40625 
L 55 0 
L 1.203125 0 
L 1.203125 1.90625 
Q 6.703125 2.203125 8.296875 4 
Q 9.90625 5.796875 9.90625 11.5 
L 9.90625 54.59375 
Q 9.90625 60.5 8.453125 62.203125 
Q 7 63.90625 1.203125 64.296875 
L 1.203125 66.203125 
L 29.5 66.203125 
L 29.5 64.296875 
Q 23.40625 63.90625 21.75 62.25 
Q 20.09375 60.59375 20.09375 54.796875 
L 20.09375 8.40625 
Q 20.09375 5.59375 21.84375 4.75 
Q 23.59375 3.90625 29.09375 3.90625 
L 36.09375 3.90625 
Q 48.203125 3.90625 53 10 
Q 55 12.703125 57.203125 17.40625 
z
" id="STIXGeneral-Regular-76"/>
     <path d="M 1.59375 66.203125 
L 28.59375 66.203125 
Q 48.09375 66.203125 58.59375 57.09375 
Q 68.5 48.59375 68.5 33.40625 
Q 68.5 15.09375 54.90625 6.40625 
Q 45 0 29.703125 0 
L 1.59375 0 
L 1.59375 1.90625 
Q 7.40625 2.296875 8.90625 3.9375 
Q 10.40625 5.59375 10.40625 11.5 
L 10.40625 55 
Q 10.40625 60.796875 8.90625 62.34375 
Q 7.40625 63.90625 1.59375 64.296875 
z
M 20.59375 58.296875 
L 20.59375 8.40625 
Q 20.59375 5.703125 21.546875 4.703125 
Q 22.5 3.703125 25.40625 3.703125 
Q 33.203125 3.703125 38 4.796875 
Q 42.796875 5.90625 47.203125 8.90625 
Q 57.59375 15.90625 57.59375 32.796875 
Q 57.59375 47.296875 48.09375 55.59375 
Q 43.796875 59.40625 38.6875 60.953125 
Q 33.59375 62.5 25.90625 62.5 
Q 23 62.5 21.796875 61.59375 
Q 20.59375 60.703125 20.59375 58.296875 
z
" id="STIXGeneral-Regular-68"/>
     <path d="M 70.703125 0 
L 45.203125 0 
L 45.203125 1.90625 
Q 49.203125 1.90625 50.703125 2.796875 
Q 52.09375 3.5 52.09375 5.203125 
Q 52.09375 7.796875 50.203125 12.203125 
L 46.09375 21.59375 
L 19.90625 21.59375 
L 15.296875 10.203125 
Q 14.40625 7.90625 14.40625 6 
Q 14.40625 3.703125 16.046875 2.796875 
Q 17.703125 1.90625 21.40625 1.90625 
L 21.40625 0 
L 1.5 0 
L 1.5 1.90625 
Q 5.703125 2.296875 7.59375 4.9375 
Q 9.5 7.59375 14.09375 18.59375 
L 34.703125 67.40625 
L 36.703125 67.40625 
L 61.296875 11.09375 
Q 63.5 5.90625 65.25 4.09375 
Q 67 2.296875 70.703125 1.90625 
z
M 44.703125 25.703125 
L 33.09375 53.203125 
L 21.59375 25.703125 
z
" id="STIXGeneral-Regular-65"/>
    </defs>
    <g transform="translate(137.46 145.693773)scale(0.3 -0.3)">
     <use transform="translate(0 0.59375)" xlink:href="#STIXGeneral-Italic-122"/>
     <use transform="translate(54.944274 0.59375)" xlink:href="#STIXGeneral-Regular-69"/>
     <use transform="translate(116.044265 0.59375)" xlink:href="#STIXGeneral-Regular-76"/>
     <use transform="translate(177.144256 0.59375)" xlink:href="#STIXGeneral-Regular-68"/>
     <use transform="translate(249.344237 0.59375)" xlink:href="#STIXGeneral-Regular-65"/>
    </g>
   </g>
  </g>
 </g>
 <defs>
  <clipPath id="p15f3a2abd5">
   <rect height="187.863872" width="357.12" x="7.2" y="7.2"/>
  </clipPath>
 </defs>
</svg>
