<?xml version="1.0" encoding="utf-8" standalone="no"?>
<!DOCTYPE svg PUBLIC "-//W3C//DTD SVG 1.1//EN"
  "http://www.w3.org/Graphics/SVG/1.1/DTD/svg11.dtd">
<!-- Created with matplotlib (https://matplotlib.org/) -->
<svg height="345.6pt" version="1.1" viewBox="0 0 460.8 345.6" width="460.8pt" xmlns="http://www.w3.org/2000/svg" xmlns:xlink="http://www.w3.org/1999/xlink">
 <defs>
  <style type="text/css">
*{stroke-linecap:butt;stroke-linejoin:round;}
  </style>
 </defs>
 <g id="figure_1">
  <g id="patch_1">
   <path d="M 0 345.6 
L 460.8 345.6 
L 460.8 0 
L 0 0 
z
" style="fill:none;"/>
  </g>
  <g id="axes_1">
   <g id="PathCollection_1">
    <defs>
     <path d="M 0 6.708204 
C 1.779036 6.708204 3.485448 6.001385 4.743416 4.743416 
C 6.001385 3.485448 6.708204 1.779036 6.708204 0 
C 6.708204 -1.779036 6.001385 -3.485448 4.743416 -4.743416 
C 3.485448 -6.001385 1.779036 -6.708204 0 -6.708204 
C -1.779036 -6.708204 -3.485448 -6.001385 -4.743416 -4.743416 
C -6.001385 -3.485448 -6.708204 -1.779036 -6.708204 0 
C -6.708204 1.779036 -6.001385 3.485448 -4.743416 4.743416 
C -3.485448 6.001385 -1.779036 6.708204 0 6.708204 
z
" id="md53e819385" style="stroke:#6495ed;"/>
    </defs>
    <g clip-path="url(#p7ec2ebada8)">
     <use style="fill:#6495ed;stroke:#6495ed;" x="236.159701" xlink:href="#md53e819385" y="174.528"/>
    </g>
   </g>
   <g id="line2d_1">
    <path clip-path="url(#p7ec2ebada8)" d="M 357.11985 174.528 
L 357.00264 169.20429 
L 356.651235 163.890896 
L 356.066317 158.598118 
L 355.24902 153.336212 
L 354.200927 148.115376 
L 352.92407 142.945727 
L 351.420923 137.837285 
L 349.694399 132.79995 
L 347.747844 127.843484 
L 345.585031 122.977492 
L 343.210152 118.211406 
L 340.627808 113.554462 
L 337.843005 109.015684 
L 334.861138 104.60387 
L 331.687989 100.327569 
L 328.329705 96.195068 
L 324.792795 92.214377 
L 321.084113 88.393211 
L 317.210848 84.738974 
L 313.180506 81.258748 
L 309.000897 77.959279 
L 304.680121 74.84696 
L 300.226552 71.927823 
L 295.648822 69.207526 
L 290.955802 66.691341 
L 286.156586 64.384143 
L 281.260476 62.290405 
L 276.276961 60.414183 
L 271.215698 58.759115 
L 266.086497 57.328407 
L 260.899297 56.124832 
L 255.664152 55.150723 
L 250.391208 54.407968 
L 245.090682 53.898006 
L 239.772849 53.621826 
L 234.448013 53.579962 
L 229.126494 53.772496 
L 223.818605 54.199054 
L 218.534634 54.858811 
L 213.28482 55.750487 
L 208.079338 56.872354 
L 202.928276 58.222239 
L 197.841616 59.797524 
L 192.829217 61.595157 
L 187.900792 63.611655 
L 183.065894 65.843109 
L 178.333891 68.285195 
L 173.713956 70.93318 
L 169.21504 73.781932 
L 164.845863 76.825931 
L 160.614893 80.059276 
L 156.530329 83.475702 
L 152.600087 87.068588 
L 148.831784 90.830971 
L 145.232723 94.755559 
L 141.809878 98.834746 
L 138.569884 103.060627 
L 135.51902 107.425012 
L 132.663197 111.919443 
L 130.007951 116.535209 
L 127.558428 121.263366 
L 125.319374 126.09475 
L 123.295129 131.019997 
L 121.489617 136.029564 
L 119.906335 141.11374 
L 118.548353 146.262674 
L 117.418302 151.466386 
L 116.518373 156.714791 
L 115.850309 161.997718 
L 115.415405 167.304929 
L 115.214504 172.626139 
L 115.247995 177.951034 
L 115.515814 183.269296 
L 116.017441 188.570616 
L 116.751904 193.844722 
L 117.71778 199.081393 
L 118.913197 204.270478 
L 120.335838 209.401923 
L 121.982946 214.465782 
L 123.851329 219.452241 
L 125.937366 224.351637 
L 128.237015 229.154474 
L 130.745818 233.851445 
L 133.458914 238.433447 
L 136.371045 242.8916 
L 139.476566 247.217264 
L 142.769459 251.402056 
L 146.243343 255.437866 
L 149.891486 259.316872 
L 153.706816 263.031557 
L 157.681941 266.574721 
L 161.809156 269.939499 
L 166.080462 273.119369 
L 170.487582 276.108168 
L 175.021976 278.900105 
L 179.674854 281.489768 
L 184.4372 283.872139 
L 189.299785 286.0426 
L 194.253184 287.996946 
L 199.287798 289.731388 
L 204.39387 291.242565 
L 209.561505 292.52755 
L 214.780687 293.58385 
L 220.041301 294.40942 
L 225.333154 295.00266 
L 230.645988 295.362419 
L 235.969507 295.488 
L 241.293395 295.37916 
L 246.607334 295.036111 
L 251.901026 294.459516 
L 257.16421 293.650493 
L 262.386688 292.610611 
L 267.558338 291.341883 
L 272.669137 289.84677 
L 277.709181 288.128169 
L 282.668702 286.189411 
L 287.538088 284.034251 
L 292.307903 281.666869 
L 296.968902 279.091851 
L 301.512052 276.314187 
L 305.92855 273.339262 
L 310.209835 270.17284 
L 314.347611 266.821058 
L 318.333858 263.290411 
L 322.160851 259.587743 
L 325.821174 255.720229 
L 329.307733 251.695363 
L 332.61377 247.520947 
L 335.732879 243.205071 
L 338.659014 238.756098 
L 341.386506 234.18265 
L 343.910067 229.493592 
L 346.224808 224.69801 
L 348.326243 219.805198 
L 350.210298 214.824639 
L 351.873322 209.765985 
L 353.312093 204.63904 
L 354.523823 199.453739 
L 355.506162 194.220132 
L 356.257207 188.948362 
L 356.775503 183.648645 
L 357.060044 178.331252 
L 357.11985 174.528 
L 357.11985 174.528 
" style="fill:none;stroke:#6495ed;stroke-linecap:square;stroke-width:2;"/>
   </g>
   <g id="line2d_2">
    <path clip-path="url(#p7ec2ebada8)" d="M 345.599836 174.528 
L 345.493789 169.71131 
L 345.175851 164.903954 
L 344.64664 160.11525 
L 343.90718 155.354478 
L 342.958905 150.630864 
L 341.803654 145.953563 
L 340.443663 141.331639 
L 338.88157 136.77405 
L 337.120402 132.289628 
L 335.163571 127.887064 
L 333.014871 123.574891 
L 330.678464 119.361465 
L 328.15888 115.254952 
L 325.461002 111.263311 
L 322.590056 107.394276 
L 319.551609 103.655347 
L 316.351548 100.05377 
L 312.996074 96.596524 
L 309.491692 93.290309 
L 305.845191 90.141534 
L 302.06364 87.1563 
L 298.154367 84.340392 
L 294.124948 81.699268 
L 289.983192 79.238047 
L 285.737125 76.961499 
L 281.394978 74.874034 
L 276.965164 72.979699 
L 272.45627 71.282166 
L 267.877032 69.784723 
L 263.236326 68.490273 
L 258.543145 67.401324 
L 253.806586 66.519988 
L 249.035826 65.847971 
L 244.240113 65.386577 
L 239.428739 65.1367 
L 234.61103 65.098823 
L 229.796323 65.27302 
L 224.993948 65.658954 
L 220.213212 66.255877 
L 215.46338 67.062631 
L 210.753658 68.077654 
L 206.093173 69.298978 
L 201.490957 70.724236 
L 196.95593 72.350666 
L 192.496879 74.175117 
L 188.122447 76.194051 
L 183.841111 78.403558 
L 179.661169 80.799354 
L 175.590722 83.376796 
L 171.637657 86.13089 
L 167.809637 89.056298 
L 164.114079 92.14735 
L 160.558145 95.398056 
L 157.148728 98.802117 
L 153.892435 102.352934 
L 150.795576 106.043627 
L 147.864152 109.867043 
L 145.103846 113.815773 
L 142.520007 117.882162 
L 140.117642 122.058332 
L 137.901406 126.336188 
L 135.875596 130.70744 
L 134.044136 135.163617 
L 132.410577 139.696082 
L 130.978084 144.296051 
L 129.749434 148.95461 
L 128.727007 153.66273 
L 127.912785 158.411287 
L 127.308346 163.191078 
L 126.914862 167.992841 
L 126.733094 172.807268 
L 126.763396 177.625031 
L 127.005708 182.436791 
L 127.459561 187.233224 
L 128.124075 192.005035 
L 128.997963 196.742974 
L 130.07953 201.437861 
L 131.366682 206.080597 
L 132.856923 210.662183 
L 134.547365 215.173742 
L 136.434732 219.606528 
L 138.515366 223.951953 
L 140.785236 228.201593 
L 143.239941 232.347214 
L 145.874726 236.380781 
L 148.684483 240.294477 
L 151.663768 244.080717 
L 154.806806 247.732164 
L 158.107506 251.241741 
L 161.559472 254.602647 
L 165.156013 257.808367 
L 168.89016 260.85269 
L 172.754675 263.729715 
L 176.74207 266.433867 
L 180.844616 268.959905 
L 185.054363 271.302933 
L 189.363153 273.458411 
L 193.762634 275.422162 
L 198.244281 277.190379 
L 202.799408 278.759637 
L 207.419188 280.126893 
L 212.094667 281.289497 
L 216.816784 282.245198 
L 221.576387 282.992142 
L 226.364253 283.528883 
L 231.171103 283.854379 
L 235.987621 283.968 
L 240.804472 283.869526 
L 245.612322 283.559148 
L 250.401852 283.037467 
L 255.163781 282.305494 
L 259.88888 281.364648 
L 264.567992 280.216752 
L 269.192048 278.86403 
L 273.752088 277.309106 
L 278.239273 275.55499 
L 282.644908 273.605085 
L 286.960455 271.463167 
L 291.177549 269.133389 
L 295.288019 266.620265 
L 299.283898 263.928666 
L 303.157441 261.063808 
L 306.901143 258.031243 
L 310.507748 254.836848 
L 313.970266 251.486815 
L 317.281986 247.987635 
L 320.436492 244.346091 
L 323.427668 240.569238 
L 326.249719 236.664397 
L 328.897175 232.639136 
L 331.364905 228.501255 
L 333.648128 224.258774 
L 335.742417 219.919914 
L 337.643715 215.493084 
L 339.348336 210.986864 
L 340.852977 206.409987 
L 342.154723 201.771322 
L 343.251049 197.079859 
L 344.139832 192.344691 
L 344.819349 187.574994 
L 345.288283 182.780012 
L 345.545726 177.969038 
L 345.599836 174.528 
L 345.599836 174.528 
" style="fill:none;stroke:#6495ed;stroke-linecap:square;stroke-width:2;"/>
   </g>
   <g id="line2d_3">
    <path clip-path="url(#p7ec2ebada8)" d="M 357.11985 174.528 
L 357.033848 171.488324 
L 356.777336 168.469119 
L 356.354773 165.490411 
L 355.546088 161.614689 
L 354.480201 157.886406 
L 353.189294 154.341423 
L 351.711751 151.00851 
L 350.090621 147.908256 
L 348.371886 145.052312 
L 346.157876 141.828574 
L 343.52257 138.443834 
L 339.174428 133.36228 
L 336.953047 130.609055 
L 335.67316 128.717983 
L 334.642451 126.790985 
L 333.83078 124.745999 
L 333.187865 122.511479 
L 332.440935 118.961033 
L 330.968138 111.543131 
L 330.044621 107.974421 
L 328.820551 104.181237 
L 327.580982 101.027949 
L 326.082344 97.812073 
L 324.307834 94.57807 
L 322.249666 91.373105 
L 319.909432 88.245193 
L 317.298091 85.241317 
L 315.173343 83.096496 
L 312.918633 81.063322 
L 310.547817 79.156933 
L 308.076808 77.390294 
L 305.523234 75.773917 
L 302.022931 73.865602 
L 298.456876 72.248615 
L 294.873313 70.924195 
L 291.319615 69.884199 
L 287.840429 69.11147 
L 284.475936 68.580564 
L 280.482965 68.206652 
L 276.772344 68.082855 
L 272.103709 68.165805 
L 265.006143 68.3519 
L 262.705199 68.201041 
L 260.542701 67.838642 
L 258.436771 67.234033 
L 256.300393 66.378674 
L 253.5752 65.042771 
L 245.197074 60.742836 
L 241.738115 59.255547 
L 237.916721 57.886736 
L 234.608739 56.937672 
L 231.097196 56.165753 
L 227.40898 55.610286 
L 223.57835 55.304722 
L 219.64563 55.275307 
L 216.65594 55.44561 
L 213.654005 55.785815 
L 210.660284 56.297236 
L 207.695231 56.978194 
L 204.778844 57.824051 
L 201.930226 58.827313 
L 198.268004 60.391883 
L 194.795009 62.187065 
L 191.541766 64.175491 
L 188.530843 66.314742 
L 185.776015 68.559032 
L 183.28177 70.861033 
L 180.522057 73.748295 
L 178.131679 76.566054 
L 175.307822 80.252843 
L 171.045317 85.879642 
L 169.490443 87.569954 
L 167.851916 89.02216 
L 166.055386 90.282261 
L 164.040861 91.413868 
L 160.778895 92.930727 
L 153.292818 96.290314 
L 149.998246 98.020949 
L 146.559863 100.101037 
L 143.758175 102.048525 
L 140.959733 104.264008 
L 138.211828 106.752642 
L 135.562109 109.510177 
L 133.056705 112.523071 
L 131.298266 114.937184 
L 129.661432 117.470105 
L 128.160501 120.107149 
L 126.807497 122.831691 
L 125.6119 125.625522 
L 124.580442 128.469254 
L 123.466689 132.303645 
L 122.652058 136.142481 
L 122.128015 139.938243 
L 121.877007 143.646159 
L 121.873202 147.225943 
L 122.083551 150.643351 
L 122.587932 154.646594 
L 123.280917 158.320799 
L 124.396807 162.894073 
L 126.27954 170.298513 
L 126.618684 172.56104 
L 126.718313 174.745379 
L 126.569328 176.938483 
L 126.185345 179.226728 
L 125.324307 182.740618 
L 123.43426 190.041273 
L 122.714281 193.647541 
L 122.165147 197.586997 
L 121.907144 200.959298 
L 121.854058 204.501431 
L 122.040541 208.180879 
L 122.494341 211.958731 
L 123.235163 215.791177 
L 124.273846 219.631215 
L 125.249593 222.487128 
L 126.391084 225.299794 
L 127.69254 228.049522 
L 129.145378 230.717666 
L 130.738394 233.287029 
L 133.056705 236.532929 
L 135.562109 239.545823 
L 138.211828 242.303358 
L 140.959733 244.791992 
L 143.758175 247.007475 
L 146.559863 248.954963 
L 149.998246 251.035051 
L 153.292818 252.765686 
L 157.544815 254.725852 
L 164.040861 257.642132 
L 166.055386 258.773739 
L 167.851916 260.03384 
L 169.490443 261.486046 
L 171.045317 263.176358 
L 172.919151 265.553175 
L 179.046269 273.603566 
L 181.57949 276.458924 
L 183.881011 278.773285 
L 186.440307 281.065309 
L 189.259947 283.287747 
L 192.333096 285.393483 
L 195.64372 287.337405 
L 199.167171 289.078206 
L 201.930226 290.228687 
L 204.778844 291.231949 
L 207.695231 292.077806 
L 210.660284 292.758764 
L 213.654005 293.270185 
L 216.65594 293.61039 
L 220.635991 293.800361 
L 224.547244 293.699885 
L 228.345838 293.329083 
L 231.99283 292.716112 
L 235.455691 291.896028 
L 238.709547 290.909355 
L 242.459017 289.509548 
L 245.845563 288.009507 
L 250.002616 285.911042 
L 256.300393 282.677326 
L 258.436771 281.821967 
L 260.542701 281.217358 
L 262.705199 280.854959 
L 265.006143 280.7041 
L 268.593143 280.748216 
L 276.772344 280.973145 
L 280.482965 280.849348 
L 284.475936 280.475436 
L 287.840429 279.94453 
L 291.319615 279.171801 
L 294.873313 278.131805 
L 298.456876 276.807385 
L 302.022931 275.190398 
L 305.523234 273.282083 
L 308.076808 271.665706 
L 310.547817 269.899067 
L 312.918633 267.992678 
L 315.173343 265.959504 
L 317.298091 263.814683 
L 319.909432 260.810807 
L 322.249666 257.682895 
L 324.307834 254.47793 
L 326.082344 251.243927 
L 327.580982 248.028051 
L 328.820551 244.874763 
L 330.044621 241.081579 
L 330.968138 237.512869 
L 331.906143 232.977563 
L 333.30596 226.079498 
L 333.977738 223.887938 
L 334.829799 221.872683 
L 335.90862 219.95968 
L 337.240032 218.065393 
L 339.530634 215.278306 
L 344.829102 208.982749 
L 347.047112 205.983571 
L 349.240516 202.60662 
L 350.916308 199.627644 
L 352.471251 196.409031 
L 353.860604 192.966976 
L 355.043445 189.326275 
L 355.984312 185.519398 
L 356.513683 182.57839 
L 356.881571 179.584004 
L 357.081596 176.555719 
L 357.11985 174.528 
L 357.11985 174.528 
" style="fill:none;stroke:#6495ed;stroke-linecap:square;stroke-width:2;"/>
   </g>
   <g id="line2d_4">
    <path clip-path="url(#p7ec2ebada8)" d="M 345.599836 174.528 
L 345.7242 172.339714 
L 346.085931 170.064736 
L 346.784929 167.106982 
L 349.113722 157.968696 
L 349.791854 154.260687 
L 350.272574 150.226051 
L 350.458176 146.786713 
L 350.425142 143.188903 
L 350.141256 139.467695 
L 349.58167 135.664026 
L 348.729926 131.823111 
L 347.894599 128.946653 
L 346.89095 126.096549 
L 345.722319 123.293029 
L 344.394963 120.555637 
L 342.917918 117.902808 
L 341.302798 115.351457 
L 338.958918 112.133178 
L 336.433049 109.151155 
L 333.768485 106.426679 
L 331.011646 103.97215 
L 328.210241 101.79064 
L 325.411381 99.875828 
L 321.98404 97.833089 
L 318.707657 96.134141 
L 314.489855 94.205974 
L 308.065932 91.304377 
L 306.075411 90.163204 
L 304.297652 88.886493 
L 302.671033 87.412225 
L 301.120024 85.696348 
L 298.913944 82.848344 
L 293.964035 76.28967 
L 291.538648 73.461338 
L 288.740024 70.571746 
L 286.213283 68.274364 
L 283.426004 66.04063 
L 280.383851 63.91778 
L 277.101732 61.951278 
L 273.603263 60.183 
L 270.856084 59.009149 
L 268.020533 57.980573 
L 265.114144 57.107886 
L 262.155833 56.399045 
L 259.165476 55.859171 
L 256.163483 55.49044 
L 252.178097 55.263183 
L 248.255763 55.328278 
L 244.44084 55.666674 
L 240.772974 56.251162 
L 237.28557 57.047476 
L 234.004514 58.015689 
L 230.219012 59.400453 
L 226.796305 60.894571 
L 222.592693 62.999329 
L 215.801506 66.475266 
L 213.672118 67.305815 
L 211.564406 67.885445 
L 209.391615 68.224957 
L 207.072684 68.357149 
L 203.450179 68.297448 
L 195.901264 68.080987 
L 192.220862 68.184374 
L 188.254186 68.529647 
L 184.906571 69.032487 
L 181.439633 69.773438 
L 177.892883 70.778908 
L 174.310501 72.06714 
L 170.739619 73.647431 
L 167.228475 75.51972 
L 164.662954 77.110218 
L 162.176919 78.852473 
L 159.788248 80.736407 
L 157.513165 82.749447 
L 155.365892 84.876794 
L 152.721886 87.861986 
L 150.346975 90.976921 
L 148.253268 94.174877 
L 146.443537 97.407865 
L 144.911154 100.628511 
L 143.640412 103.791918 
L 142.382478 107.604272 
L 141.432227 111.197834 
L 140.47081 115.773642 
L 139.07304 122.745204 
L 138.416023 124.957952 
L 137.5844 126.987706 
L 136.529776 128.90729 
L 135.224156 130.79953 
L 133.319613 133.157192 
L 127.269904 140.356832 
L 125.050362 143.392831 
L 122.864393 146.808317 
L 121.201172 149.817823 
L 119.664543 153.065435 
L 118.298863 156.533844 
L 117.144458 160.197238 
L 116.236002 164.022269 
L 115.732983 166.973481 
L 115.392706 169.974895 
L 115.221076 173.006877 
L 115.221076 176.049123 
L 115.392706 179.081105 
L 115.732983 182.082519 
L 116.438415 186.00307 
L 117.411245 189.791184 
L 118.621966 193.408683 
L 120.034351 196.823995 
L 121.606906 200.013354 
L 123.294538 202.961692 
L 125.49446 206.300178 
L 127.710075 209.262827 
L 130.67852 212.842479 
L 135.224156 218.25647 
L 136.529776 220.14871 
L 137.5844 222.068294 
L 138.416023 224.098048 
L 139.07304 226.310796 
L 139.827101 229.82309 
L 141.432227 237.858166 
L 142.382478 241.451728 
L 143.640412 245.264082 
L 144.911154 248.427489 
L 146.443537 251.648135 
L 148.253268 254.881123 
L 150.346975 258.079079 
L 152.721886 261.194014 
L 155.365892 264.179206 
L 157.513165 266.306553 
L 159.788248 268.319593 
L 162.176919 270.203527 
L 164.662954 271.945782 
L 167.228475 273.53628 
L 170.739619 275.408569 
L 174.310501 276.98886 
L 177.892883 278.277092 
L 181.439633 279.282562 
L 184.906571 280.023513 
L 188.254186 280.526353 
L 192.220862 280.871626 
L 195.901264 280.975013 
L 200.5252 280.878429 
L 207.072684 280.698851 
L 209.391615 280.831043 
L 211.564406 281.170555 
L 213.672118 281.750185 
L 215.801506 282.580734 
L 218.507216 283.890257 
L 227.451927 288.464623 
L 230.947204 289.944174 
L 234.004514 291.040311 
L 237.28557 292.008524 
L 240.772974 292.804838 
L 244.44084 293.389326 
L 248.255763 293.727722 
L 252.178097 293.792817 
L 255.163781 293.650493 
L 258.16509 293.338777 
L 261.161606 292.855856 
L 264.132844 292.202912 
L 267.058698 291.384093 
L 269.919886 290.406428 
L 273.603263 288.873 
L 277.101732 287.104722 
L 280.383851 285.13822 
L 283.426004 283.01537 
L 286.213283 280.781636 
L 288.740024 278.484254 
L 291.538648 275.594662 
L 293.964035 272.76633 
L 296.826835 269.053439 
L 301.428148 262.995718 
L 302.987729 261.330716 
L 304.638912 259.900109 
L 306.454816 258.655977 
L 308.493764 257.533162 
L 311.794543 256.014591 
L 318.707657 252.921859 
L 321.98404 251.222911 
L 325.411381 249.180172 
L 328.210241 247.26536 
L 331.011646 245.08385 
L 333.768485 242.629321 
L 336.433049 239.904845 
L 338.958918 236.922822 
L 341.302798 233.704543 
L 342.917918 231.153192 
L 344.394963 228.500363 
L 345.722319 225.762971 
L 346.89095 222.959451 
L 347.894599 220.109347 
L 348.970815 216.271753 
L 349.748465 212.435741 
L 350.237241 208.648587 
L 350.455776 204.954595 
L 350.43087 201.393374 
L 350.196384 197.998317 
L 349.669196 194.026808 
L 348.962261 190.386525 
L 347.841968 185.860076 
L 346.085931 178.991264 
L 345.7242 176.716286 
L 345.599836 174.528 
L 345.599836 174.528 
" style="fill:none;stroke:#6495ed;stroke-linecap:square;stroke-width:2;"/>
   </g>
   <g id="line2d_5">
    <path clip-path="url(#p7ec2ebada8)" d="M 144.137966 174.630938 
L 179.655127 174.833003 
L 185.190269 174.643533 
L 189.341625 174.309901 
L 193.03172 173.794732 
L 196.260553 173.107578 
L 199.028124 172.292232 
L 201.795695 171.223659 
L 204.563265 169.879981 
L 208.25336 167.78143 
L 211.020931 166.29409 
L 212.865978 165.571065 
L 214.249764 165.266818 
L 215.633549 165.220076 
L 217.017335 165.461422 
L 218.40112 165.999711 
L 219.784906 166.819736 
L 221.168691 167.882694 
L 223.013739 169.572432 
L 227.165095 173.55776 
L 228.548881 174.615679 
L 229.932666 175.390324 
L 230.85519 175.711692 
L 231.777714 175.854445 
L 232.700237 175.802423 
L 233.622761 175.542162 
L 234.545285 175.062535 
L 235.467808 174.354168 
L 236.390332 173.408687 
L 237.312856 172.217965 
L 238.696641 169.953105 
L 240.080427 167.084426 
L 241.464212 163.575866 
L 242.847998 159.393536 
L 244.231783 154.516353 
L 245.615568 148.949736 
L 247.460616 140.540821 
L 249.766925 128.82175 
L 254.379543 104.857674 
L 256.224591 96.672448 
L 257.608376 91.55384 
L 258.992162 87.488037 
L 259.914685 85.415381 
L 260.837209 83.874354 
L 261.759733 82.871575 
L 262.220994 82.571462 
L 262.682256 82.404129 
L 263.143518 82.367886 
L 263.60478 82.460576 
L 264.066042 82.679609 
L 264.988565 83.48438 
L 265.911089 84.754032 
L 266.833613 86.455434 
L 267.756136 88.551313 
L 269.139922 92.345271 
L 270.523707 96.788049 
L 272.368755 103.455919 
L 275.597588 116.178288 
L 279.287682 130.591374 
L 281.593991 138.819427 
L 283.900301 146.162058 
L 285.745348 151.315729 
L 287.590395 155.799828 
L 289.435442 159.618335 
L 291.28049 162.802643 
L 292.664275 164.806718 
L 294.048061 166.513207 
L 295.431846 167.953566 
L 297.276894 169.51532 
L 299.121941 170.733516 
L 300.966988 171.67352 
L 302.812036 172.391266 
L 305.118345 173.04509 
L 307.885916 173.564205 
L 311.114749 173.921709 
L 315.727367 174.17664 
L 323.568818 174.347059 
L 328.181436 174.389742 
L 328.181436 174.389742 
" style="fill:none;stroke:#000000;stroke-linecap:square;stroke-width:2;"/>
   </g>
   <g id="text_1">
    <!-- $z\:{\rmELDA}$ -->
    <defs>
     <path d="M 38 41.703125 
L 9.09375 7.296875 
Q 13.703125 6.296875 15.953125 4.796875 
Q 18.203125 3.296875 21.09375 -1 
Q 24.5 -6 28.09375 -6 
Q 30.796875 -6 30.796875 -4.5 
Q 30.796875 -4 30.296875 -3 
Q 29.5 -1.40625 29.5 -0.203125 
Q 29.59375 1.09375 30.59375 2.140625 
Q 31.59375 3.203125 32.796875 3.203125 
Q 34.40625 3.203125 35.34375 2.203125 
Q 36.296875 1.203125 36.296875 -0.5 
Q 36.296875 -3.59375 33.6875 -5.84375 
Q 31.09375 -8.09375 27 -8.09375 
Q 22.796875 -8.09375 15.703125 -3.703125 
Q 8.90625 0.5 5.203125 0.5 
Q 2.90625 0.5 0.703125 -1.296875 
L -0.203125 -0.40625 
L 30.796875 36.796875 
L 17.203125 36.796875 
Q 13.203125 36.796875 11.390625 35.640625 
Q 9.59375 34.5 8.09375 30.796875 
L 6.5 31.203125 
L 9.703125 42.796875 
L 38 42.796875 
z
" id="STIXGeneral-Italic-122"/>
     <path d="M 59.703125 16.90625 
L 55.09375 0 
L 1.203125 0 
L 1.203125 1.90625 
Q 6.90625 2.296875 8.40625 3.9375 
Q 9.90625 5.59375 9.90625 11.40625 
L 9.90625 55 
Q 9.90625 60.59375 8.34375 62.296875 
Q 6.796875 64 1.203125 64.296875 
L 1.203125 66.203125 
L 54.203125 66.203125 
L 54.59375 51.90625 
L 52.09375 51.90625 
Q 51 58.59375 48.203125 60.5 
Q 45.40625 62.40625 36.703125 62.40625 
L 23.59375 62.40625 
Q 21.40625 62.40625 20.75 61.75 
Q 20.09375 61.09375 20.09375 58.796875 
L 20.09375 36.796875 
L 35.203125 36.796875 
Q 41.5 36.796875 43.546875 38.59375 
Q 45.59375 40.40625 46.5 46.40625 
L 48.796875 46.40625 
L 48.796875 23 
L 46.5 23 
Q 45.59375 29.296875 43.59375 31 
Q 41.59375 32.703125 35.203125 32.703125 
L 20.09375 32.703125 
L 20.09375 8.40625 
Q 20.09375 5.40625 22.1875 4.546875 
Q 24.296875 3.703125 30.203125 3.703125 
L 33.796875 3.703125 
Q 44.5 3.703125 49 6.296875 
Q 53.5 8.90625 56.90625 16.90625 
z
" id="STIXGeneral-Regular-69"/>
     <path d="M 59.796875 17.40625 
L 55 0 
L 1.203125 0 
L 1.203125 1.90625 
Q 6.703125 2.203125 8.296875 4 
Q 9.90625 5.796875 9.90625 11.5 
L 9.90625 54.59375 
Q 9.90625 60.5 8.453125 62.203125 
Q 7 63.90625 1.203125 64.296875 
L 1.203125 66.203125 
L 29.5 66.203125 
L 29.5 64.296875 
Q 23.40625 63.90625 21.75 62.25 
Q 20.09375 60.59375 20.09375 54.796875 
L 20.09375 8.40625 
Q 20.09375 5.59375 21.84375 4.75 
Q 23.59375 3.90625 29.09375 3.90625 
L 36.09375 3.90625 
Q 48.203125 3.90625 53 10 
Q 55 12.703125 57.203125 17.40625 
z
" id="STIXGeneral-Regular-76"/>
     <path d="M 1.59375 66.203125 
L 28.59375 66.203125 
Q 48.09375 66.203125 58.59375 57.09375 
Q 68.5 48.59375 68.5 33.40625 
Q 68.5 15.09375 54.90625 6.40625 
Q 45 0 29.703125 0 
L 1.59375 0 
L 1.59375 1.90625 
Q 7.40625 2.296875 8.90625 3.9375 
Q 10.40625 5.59375 10.40625 11.5 
L 10.40625 55 
Q 10.40625 60.796875 8.90625 62.34375 
Q 7.40625 63.90625 1.59375 64.296875 
z
M 20.59375 58.296875 
L 20.59375 8.40625 
Q 20.59375 5.703125 21.546875 4.703125 
Q 22.5 3.703125 25.40625 3.703125 
Q 33.203125 3.703125 38 4.796875 
Q 42.796875 5.90625 47.203125 8.90625 
Q 57.59375 15.90625 57.59375 32.796875 
Q 57.59375 47.296875 48.09375 55.59375 
Q 43.796875 59.40625 38.6875 60.953125 
Q 33.59375 62.5 25.90625 62.5 
Q 23 62.5 21.796875 61.59375 
Q 20.59375 60.703125 20.59375 58.296875 
z
" id="STIXGeneral-Regular-68"/>
     <path d="M 70.703125 0 
L 45.203125 0 
L 45.203125 1.90625 
Q 49.203125 1.90625 50.703125 2.796875 
Q 52.09375 3.5 52.09375 5.203125 
Q 52.09375 7.796875 50.203125 12.203125 
L 46.09375 21.59375 
L 19.90625 21.59375 
L 15.296875 10.203125 
Q 14.40625 7.90625 14.40625 6 
Q 14.40625 3.703125 16.046875 2.796875 
Q 17.703125 1.90625 21.40625 1.90625 
L 21.40625 0 
L 1.5 0 
L 1.5 1.90625 
Q 5.703125 2.296875 7.59375 4.9375 
Q 9.5 7.59375 14.09375 18.59375 
L 34.703125 67.40625 
L 36.703125 67.40625 
L 61.296875 11.09375 
Q 63.5 5.90625 65.25 4.09375 
Q 67 2.296875 70.703125 1.90625 
z
M 44.703125 25.703125 
L 33.09375 53.203125 
L 21.59375 25.703125 
z
" id="STIXGeneral-Regular-65"/>
    </defs>
    <g transform="translate(171.76 237.06915)scale(0.4 -0.4)">
     <use transform="translate(0 0.59375)" xlink:href="#STIXGeneral-Italic-122"/>
     <use transform="translate(54.944274 0.59375)" xlink:href="#STIXGeneral-Regular-69"/>
     <use transform="translate(116.044265 0.59375)" xlink:href="#STIXGeneral-Regular-76"/>
     <use transform="translate(177.144256 0.59375)" xlink:href="#STIXGeneral-Regular-68"/>
     <use transform="translate(249.344237 0.59375)" xlink:href="#STIXGeneral-Regular-65"/>
    </g>
   </g>
  </g>
 </g>
 <defs>
  <clipPath id="p7ec2ebada8">
   <rect height="266.112" width="266.111671" x="103.104164" y="41.472"/>
  </clipPath>
 </defs>
</svg>
