<?xml version="1.0" encoding="utf-8" standalone="no"?>
<!DOCTYPE svg PUBLIC "-//W3C//DTD SVG 1.1//EN"
  "http://www.w3.org/Graphics/SVG/1.1/DTD/svg11.dtd">
<!-- Created with matplotlib (https://matplotlib.org/) -->
<svg height="280.512pt" version="1.1" viewBox="0 0 280.511671 280.512" width="280.511671pt" xmlns="http://www.w3.org/2000/svg" xmlns:xlink="http://www.w3.org/1999/xlink">
 <defs>
  <style type="text/css">
*{stroke-linecap:butt;stroke-linejoin:round;}
  </style>
 </defs>
 <g id="figure_1">
  <g id="patch_1">
   <path d="M 0 280.512 
L 280.511671 280.512 
L 280.511671 0 
L 0 0 
z
" style="fill:#ffffff;"/>
  </g>
  <g id="axes_1">
   <g id="PathCollection_1">
    <defs>
     <path d="M 0 6.708204 
C 1.779036 6.708204 3.485448 6.001385 4.743416 4.743416 
C 6.001385 3.485448 6.708204 1.779036 6.708204 0 
C 6.708204 -1.779036 6.001385 -3.485448 4.743416 -4.743416 
C 3.485448 -6.001385 1.779036 -6.708204 0 -6.708204 
C -1.779036 -6.708204 -3.485448 -6.001385 -4.743416 -4.743416 
C -6.001385 -3.485448 -6.708204 -1.779036 -6.708204 0 
C -6.708204 1.779036 -6.001385 3.485448 -4.743416 4.743416 
C -3.485448 6.001385 -1.779036 6.708204 0 6.708204 
z
" id="m849952188b" style="stroke:#6495ed;"/>
    </defs>
    <g clip-path="url(#p14d74c19af)">
     <use style="fill:#6495ed;stroke:#6495ed;" x="140.255536" xlink:href="#m849952188b" y="140.256"/>
    </g>
   </g>
   <g id="line2d_1">
    <path clip-path="url(#p14d74c19af)" d="M 261.215686 140.256 
L 261.098475 134.93229 
L 260.747071 129.618896 
L 260.162153 124.326118 
L 259.344855 119.064212 
L 258.296763 113.843376 
L 257.019905 108.673727 
L 255.516758 103.565285 
L 253.790234 98.52795 
L 251.84368 93.571484 
L 249.680867 88.705492 
L 247.305987 83.939406 
L 244.723643 79.282462 
L 241.93884 74.743684 
L 238.956974 70.33187 
L 235.783824 66.055569 
L 232.42554 61.923068 
L 228.88863 57.942377 
L 225.179949 54.121211 
L 221.306684 50.466974 
L 217.276341 46.986748 
L 213.096732 43.687279 
L 208.775957 40.57496 
L 204.322388 37.655823 
L 199.744658 34.935526 
L 195.051637 32.419341 
L 190.252422 30.112143 
L 185.356312 28.018405 
L 180.372797 26.142183 
L 175.311534 24.487115 
L 170.182333 23.056407 
L 164.995133 21.852832 
L 159.759988 20.878723 
L 154.487043 20.135968 
L 149.186518 19.626006 
L 143.868684 19.349826 
L 138.543848 19.307962 
L 133.222329 19.500496 
L 127.914441 19.927054 
L 122.63047 20.586811 
L 117.380656 21.478487 
L 112.175174 22.600354 
L 107.024111 23.950239 
L 101.937451 25.525524 
L 96.925052 27.323157 
L 91.996628 29.339655 
L 87.161729 31.571109 
L 82.429727 34.013195 
L 77.809791 36.66118 
L 73.310875 39.509932 
L 68.941699 42.553931 
L 64.710729 45.787276 
L 60.626164 49.203702 
L 56.695923 52.796588 
L 52.927619 56.558971 
L 49.328558 60.483559 
L 45.905714 64.562746 
L 42.66572 68.788627 
L 39.614855 73.153012 
L 36.759033 77.647443 
L 34.103787 82.263209 
L 31.654263 86.991366 
L 29.41521 91.82275 
L 27.390965 96.747997 
L 25.585452 101.757564 
L 24.002171 106.84174 
L 22.644189 111.990674 
L 21.514138 117.194386 
L 20.614209 122.442791 
L 19.946144 127.725718 
L 19.51124 133.032929 
L 19.310339 138.354139 
L 19.343831 143.679034 
L 19.611649 148.997296 
L 20.113276 154.298616 
L 20.847739 159.572722 
L 21.813615 164.809393 
L 23.009032 169.998478 
L 24.431673 175.129923 
L 26.078781 180.193782 
L 27.947165 185.180241 
L 30.033202 190.079637 
L 32.332851 194.882474 
L 34.841654 199.579445 
L 37.55475 204.161447 
L 40.46688 208.6196 
L 43.572401 212.945264 
L 46.865295 217.130056 
L 50.339179 221.165866 
L 53.987321 225.044872 
L 57.802652 228.759557 
L 61.777776 232.302721 
L 65.904991 235.667499 
L 70.176298 238.847369 
L 74.583418 241.836168 
L 79.117811 244.628105 
L 83.770689 247.217768 
L 88.533036 249.600139 
L 93.39562 251.7706 
L 98.349019 253.724946 
L 103.383634 255.459388 
L 108.489706 256.970565 
L 113.657341 258.25555 
L 118.876522 259.31185 
L 124.137137 260.13742 
L 129.428989 260.73066 
L 134.741823 261.090419 
L 140.065343 261.216 
L 145.389231 261.10716 
L 150.70317 260.764111 
L 155.996861 260.187516 
L 161.260046 259.378493 
L 166.482524 258.338611 
L 171.654174 257.069883 
L 176.764973 255.57477 
L 181.805017 253.856169 
L 186.764537 251.917411 
L 191.633924 249.762251 
L 196.403738 247.394869 
L 201.064737 244.819851 
L 205.607888 242.042187 
L 210.024385 239.067262 
L 214.305671 235.90084 
L 218.443446 232.549058 
L 222.429693 229.018411 
L 226.256687 225.315743 
L 229.91701 221.448229 
L 233.403568 217.423363 
L 236.709605 213.248947 
L 239.828714 208.933071 
L 242.75485 204.484098 
L 245.482341 199.91065 
L 248.005903 195.221592 
L 250.320644 190.42601 
L 252.422078 185.533198 
L 254.306133 180.552639 
L 255.969158 175.493985 
L 257.407929 170.36704 
L 258.619658 165.181739 
L 259.601997 159.948132 
L 260.353042 154.676362 
L 260.871338 149.376645 
L 261.15588 144.059252 
L 261.215686 140.256 
L 261.215686 140.256 
" style="fill:none;stroke:#6495ed;stroke-linecap:square;stroke-width:2;"/>
   </g>
   <g id="line2d_2">
    <path clip-path="url(#p14d74c19af)" d="M 249.695672 140.256 
L 249.589624 135.43931 
L 249.271686 130.631954 
L 248.742475 125.84325 
L 248.003016 121.082478 
L 247.054741 116.358864 
L 245.899489 111.681563 
L 244.539499 107.059639 
L 242.977406 102.50205 
L 241.216237 98.017628 
L 239.259407 93.615064 
L 237.110706 89.302891 
L 234.7743 85.089465 
L 232.254716 80.982952 
L 229.556837 76.991311 
L 226.685892 73.122276 
L 223.647445 69.383347 
L 220.447383 65.78177 
L 217.09191 62.324524 
L 213.587527 59.018309 
L 209.941027 55.869534 
L 206.159476 52.8843 
L 202.250202 50.068392 
L 198.220783 47.427268 
L 194.079027 44.966047 
L 189.832961 42.689499 
L 185.490813 40.602034 
L 181.061 38.707699 
L 176.552105 37.010166 
L 171.972867 35.512723 
L 167.332161 34.218273 
L 162.638981 33.129324 
L 157.902421 32.247988 
L 153.131662 31.575971 
L 148.335948 31.114577 
L 143.524575 30.8647 
L 138.706866 30.826823 
L 133.892159 31.00102 
L 129.089783 31.386954 
L 124.309047 31.983877 
L 119.559216 32.790631 
L 114.849494 33.805654 
L 110.189009 35.026978 
L 105.586793 36.452236 
L 101.051765 38.078666 
L 96.592714 39.903117 
L 92.218282 41.922051 
L 87.936947 44.131558 
L 83.757005 46.527354 
L 79.686557 49.104796 
L 75.733493 51.85889 
L 71.905472 54.784298 
L 68.209914 57.87535 
L 64.653981 61.126056 
L 61.244564 64.530117 
L 57.98827 68.080934 
L 54.891411 71.771627 
L 51.959988 75.595043 
L 49.199682 79.543773 
L 46.615842 83.610162 
L 44.213477 87.786332 
L 41.997242 92.064188 
L 39.971431 96.43544 
L 38.139972 100.891617 
L 36.506413 105.424082 
L 35.07392 110.024051 
L 33.845269 114.68261 
L 32.822843 119.39073 
L 32.008621 124.139287 
L 31.404182 128.919078 
L 31.010697 133.720841 
L 30.82893 138.535268 
L 30.859231 143.353031 
L 31.101543 148.164791 
L 31.555396 152.961224 
L 32.219911 157.733035 
L 33.093798 162.470974 
L 34.175366 167.165861 
L 35.462517 171.808597 
L 36.952758 176.390183 
L 38.6432 180.901742 
L 40.530567 185.334528 
L 42.611202 189.679953 
L 44.881071 193.929593 
L 47.335777 198.075214 
L 49.970562 202.108781 
L 52.780319 206.022477 
L 55.759603 209.808717 
L 58.902641 213.460164 
L 62.203342 216.969741 
L 65.655307 220.330647 
L 69.251849 223.536367 
L 72.985995 226.58069 
L 76.850511 229.457715 
L 80.837905 232.161867 
L 84.940452 234.687905 
L 89.150199 237.030933 
L 93.458988 239.186411 
L 97.858469 241.150162 
L 102.340116 242.918379 
L 106.895244 244.487637 
L 111.515023 245.854893 
L 116.190502 247.017497 
L 120.912619 247.973198 
L 125.672223 248.720142 
L 130.460089 249.256883 
L 135.266939 249.582379 
L 140.083456 249.696 
L 144.900307 249.597526 
L 149.708157 249.287148 
L 154.497687 248.765467 
L 159.259617 248.033494 
L 163.984716 247.092648 
L 168.663827 245.944752 
L 173.287884 244.59203 
L 177.847923 243.037106 
L 182.335109 241.28299 
L 186.740744 239.333085 
L 191.05629 237.191167 
L 195.273385 234.861389 
L 199.383854 232.348265 
L 203.379733 229.656666 
L 207.253277 226.791808 
L 210.996979 223.759243 
L 214.603583 220.564848 
L 218.066101 217.214815 
L 221.377822 213.715635 
L 224.532327 210.074091 
L 227.523504 206.297238 
L 230.345554 202.392397 
L 232.993011 198.367136 
L 235.460741 194.229255 
L 237.743963 189.986774 
L 239.838253 185.647914 
L 241.73955 181.221084 
L 243.444172 176.714864 
L 244.948813 172.137987 
L 246.250558 167.499322 
L 247.346885 162.807859 
L 248.235668 158.072691 
L 248.915185 153.302994 
L 249.384119 148.508012 
L 249.641561 143.697038 
L 249.695672 140.256 
L 249.695672 140.256 
" style="fill:none;stroke:#6495ed;stroke-linecap:square;stroke-width:2;"/>
   </g>
   <g id="line2d_3">
    <path clip-path="url(#p14d74c19af)" d="M 261.215686 140.256 
L 261.129683 137.216324 
L 260.873172 134.197119 
L 260.450608 131.218411 
L 259.641923 127.342689 
L 258.576036 123.614406 
L 257.285129 120.069423 
L 255.807587 116.73651 
L 254.186457 113.636256 
L 252.467722 110.780312 
L 250.253711 107.556574 
L 247.618405 104.171834 
L 243.270263 99.09028 
L 241.048882 96.337055 
L 239.768995 94.445983 
L 238.738287 92.518985 
L 237.926615 90.473999 
L 237.2837 88.239479 
L 236.53677 84.689033 
L 235.063974 77.271131 
L 234.140457 73.702421 
L 232.916387 69.909237 
L 231.676818 66.755949 
L 230.178179 63.540073 
L 228.403669 60.30607 
L 226.345502 57.101105 
L 224.005268 53.973193 
L 221.393926 50.969317 
L 219.269179 48.824496 
L 217.014469 46.791322 
L 214.643652 44.884933 
L 212.172643 43.118294 
L 209.61907 41.501917 
L 206.118767 39.593602 
L 202.552711 37.976615 
L 198.969149 36.652195 
L 195.415451 35.612199 
L 191.936265 34.83947 
L 188.571772 34.308564 
L 184.578801 33.934652 
L 180.868179 33.810855 
L 176.199545 33.893805 
L 169.101979 34.0799 
L 166.801035 33.929041 
L 164.638537 33.566642 
L 162.532606 32.962033 
L 160.396229 32.106674 
L 157.671036 30.770771 
L 149.292909 26.470836 
L 145.833951 24.983547 
L 142.012557 23.614736 
L 138.704574 22.665672 
L 135.193032 21.893753 
L 131.504816 21.338286 
L 127.674186 21.032722 
L 123.741466 21.003307 
L 120.751776 21.17361 
L 117.74984 21.513815 
L 114.756119 22.025236 
L 111.791067 22.706194 
L 108.87468 23.552051 
L 106.026062 24.555313 
L 102.363839 26.119883 
L 98.890845 27.915065 
L 95.637601 29.903491 
L 92.626679 32.042742 
L 89.87185 34.287032 
L 87.377606 36.589033 
L 84.617892 39.476295 
L 82.227515 42.294054 
L 79.403658 45.980843 
L 75.141152 51.607642 
L 73.586278 53.297954 
L 71.947751 54.75016 
L 70.151222 56.010261 
L 68.136696 57.141868 
L 64.87473 58.658727 
L 57.388654 62.018314 
L 54.094081 63.748949 
L 50.655698 65.829037 
L 47.85401 67.776525 
L 45.055569 69.992008 
L 42.307663 72.480642 
L 39.657945 75.238177 
L 37.15254 78.251071 
L 35.394102 80.665184 
L 33.757267 83.198105 
L 32.256336 85.835149 
L 30.903332 88.559691 
L 29.707736 91.353522 
L 28.676278 94.197254 
L 27.562524 98.031645 
L 26.747894 101.870481 
L 26.223851 105.666243 
L 25.972843 109.374159 
L 25.969038 112.953943 
L 26.179386 116.371351 
L 26.683767 120.374594 
L 27.376753 124.048799 
L 28.492643 128.622073 
L 30.375375 136.026513 
L 30.71452 138.28904 
L 30.814148 140.473379 
L 30.665163 142.666483 
L 30.281181 144.954728 
L 29.420142 148.468618 
L 27.530096 155.769273 
L 26.810116 159.375541 
L 26.260982 163.314997 
L 26.002979 166.687298 
L 25.949893 170.229431 
L 26.136376 173.908879 
L 26.590177 177.686731 
L 27.330999 181.519177 
L 28.369681 185.359215 
L 29.345429 188.215128 
L 30.48692 191.027794 
L 31.788376 193.777522 
L 33.241213 196.445666 
L 34.834229 199.015029 
L 37.15254 202.260929 
L 39.657945 205.273823 
L 42.307663 208.031358 
L 45.055569 210.519992 
L 47.85401 212.735475 
L 50.655698 214.682963 
L 54.094081 216.763051 
L 57.388654 218.493686 
L 61.640651 220.453852 
L 68.136696 223.370132 
L 70.151222 224.501739 
L 71.947751 225.76184 
L 73.586278 227.214046 
L 75.141152 228.904358 
L 77.014986 231.281175 
L 83.142104 239.331566 
L 85.675326 242.186924 
L 87.976846 244.501285 
L 90.536142 246.793309 
L 93.355782 249.015747 
L 96.428931 251.121483 
L 99.739556 253.065405 
L 103.263006 254.806206 
L 106.026062 255.956687 
L 108.87468 256.959949 
L 111.791067 257.805806 
L 114.756119 258.486764 
L 117.74984 258.998185 
L 120.751776 259.33839 
L 124.731826 259.528361 
L 128.643079 259.427885 
L 132.441674 259.057083 
L 136.088666 258.444112 
L 139.551526 257.624028 
L 142.805383 256.637355 
L 146.554852 255.237548 
L 149.941399 253.737507 
L 154.098452 251.639042 
L 160.396229 248.405326 
L 162.532606 247.549967 
L 164.638537 246.945358 
L 166.801035 246.582959 
L 169.101979 246.4321 
L 172.688979 246.476216 
L 180.868179 246.701145 
L 184.578801 246.577348 
L 188.571772 246.203436 
L 191.936265 245.67253 
L 195.415451 244.899801 
L 198.969149 243.859805 
L 202.552711 242.535385 
L 206.118767 240.918398 
L 209.61907 239.010083 
L 212.172643 237.393706 
L 214.643652 235.627067 
L 217.014469 233.720678 
L 219.269179 231.687504 
L 221.393926 229.542683 
L 224.005268 226.538807 
L 226.345502 223.410895 
L 228.403669 220.20593 
L 230.178179 216.971927 
L 231.676818 213.756051 
L 232.916387 210.602763 
L 234.140457 206.809579 
L 235.063974 203.240869 
L 236.001979 198.705563 
L 237.401795 191.807498 
L 238.073573 189.615938 
L 238.925635 187.600683 
L 240.004455 185.68768 
L 241.335867 183.793393 
L 243.62647 181.006306 
L 248.924937 174.710749 
L 251.142947 171.711571 
L 253.336351 168.33462 
L 255.012144 165.355644 
L 256.567087 162.137031 
L 257.95644 158.694976 
L 259.139281 155.054275 
L 260.080148 151.247398 
L 260.609519 148.30639 
L 260.977406 145.312004 
L 261.177432 142.283719 
L 261.215686 140.256 
L 261.215686 140.256 
" style="fill:none;stroke:#6495ed;stroke-linecap:square;stroke-width:2;"/>
   </g>
   <g id="line2d_4">
    <path clip-path="url(#p14d74c19af)" d="M 249.695672 140.256 
L 249.820035 138.067714 
L 250.181767 135.792736 
L 250.880765 132.834982 
L 253.209558 123.696696 
L 253.887689 119.988687 
L 254.36841 115.954051 
L 254.554011 112.514713 
L 254.520977 108.916903 
L 254.237092 105.195695 
L 253.677506 101.392026 
L 252.825761 97.551111 
L 251.990435 94.674653 
L 250.986785 91.824549 
L 249.818155 89.021029 
L 248.490799 86.283637 
L 247.013753 83.630808 
L 245.398634 81.079457 
L 243.054753 77.861178 
L 240.528884 74.879155 
L 237.864321 72.154679 
L 235.107482 69.70015 
L 232.306076 67.51864 
L 229.507216 65.603828 
L 226.079875 63.561089 
L 222.803492 61.862141 
L 218.585691 59.933974 
L 212.161768 57.032377 
L 210.171246 55.891204 
L 208.393488 54.614493 
L 206.766869 53.140225 
L 205.21586 51.424348 
L 203.009779 48.576344 
L 198.05987 42.01767 
L 195.634483 39.189338 
L 192.835859 36.299746 
L 190.309118 34.002364 
L 187.521839 31.76863 
L 184.479687 29.64578 
L 181.197568 27.679278 
L 177.699099 25.911 
L 174.95192 24.737149 
L 172.116368 23.708573 
L 169.20998 22.835886 
L 166.251668 22.127045 
L 163.261312 21.587171 
L 160.259319 21.21844 
L 156.273932 20.991183 
L 152.351598 21.056278 
L 148.536675 21.394674 
L 144.868809 21.979162 
L 141.381405 22.775476 
L 138.100349 23.743689 
L 134.314848 25.128453 
L 130.892141 26.622571 
L 126.688529 28.727329 
L 119.897342 32.203266 
L 117.767954 33.033815 
L 115.660242 33.613445 
L 113.487451 33.952957 
L 111.16852 34.085149 
L 107.546014 34.025448 
L 99.9971 33.808987 
L 96.316698 33.912374 
L 92.350022 34.257647 
L 89.002407 34.760487 
L 85.535469 35.501438 
L 81.988719 36.506908 
L 78.406337 37.79514 
L 74.835455 39.375431 
L 71.324311 41.24772 
L 68.758789 42.838218 
L 66.272755 44.580473 
L 63.884083 46.464407 
L 61.609001 48.477447 
L 59.461727 50.604794 
L 56.817721 53.589986 
L 54.442811 56.704921 
L 52.349104 59.902877 
L 50.539372 63.135865 
L 49.006989 66.356511 
L 47.736247 69.519918 
L 46.478314 73.332272 
L 45.528063 76.925834 
L 44.566645 81.501642 
L 43.168875 88.473204 
L 42.511859 90.685952 
L 41.680236 92.715706 
L 40.625612 94.63529 
L 39.319991 96.52753 
L 37.415449 98.885192 
L 31.36574 106.084832 
L 29.146198 109.120831 
L 26.960228 112.536317 
L 25.297008 115.545823 
L 23.760378 118.793435 
L 22.394698 122.261844 
L 21.240293 125.925238 
L 20.331837 129.750269 
L 19.828818 132.701481 
L 19.488542 135.702895 
L 19.316911 138.734877 
L 19.316911 141.777123 
L 19.488542 144.809105 
L 19.828818 147.810519 
L 20.534251 151.73107 
L 21.507081 155.519184 
L 22.717802 159.136683 
L 24.130186 162.551995 
L 25.702741 165.741354 
L 27.390374 168.689692 
L 29.590296 172.028178 
L 31.80591 174.990827 
L 34.774356 178.570479 
L 39.319991 183.98447 
L 40.625612 185.87671 
L 41.680236 187.796294 
L 42.511859 189.826048 
L 43.168875 192.038796 
L 43.922936 195.55109 
L 45.528063 203.586166 
L 46.478314 207.179728 
L 47.736247 210.992082 
L 49.006989 214.155489 
L 50.539372 217.376135 
L 52.349104 220.609123 
L 54.442811 223.807079 
L 56.817721 226.922014 
L 59.461727 229.907206 
L 61.609001 232.034553 
L 63.884083 234.047593 
L 66.272755 235.931527 
L 68.758789 237.673782 
L 71.324311 239.26428 
L 74.835455 241.136569 
L 78.406337 242.71686 
L 81.988719 244.005092 
L 85.535469 245.010562 
L 89.002407 245.751513 
L 92.350022 246.254353 
L 96.316698 246.599626 
L 99.9971 246.703013 
L 104.621035 246.606429 
L 111.16852 246.426851 
L 113.487451 246.559043 
L 115.660242 246.898555 
L 117.767954 247.478185 
L 119.897342 248.308734 
L 122.603052 249.618257 
L 131.547762 254.192623 
L 135.043039 255.672174 
L 138.100349 256.768311 
L 141.381405 257.736524 
L 144.868809 258.532838 
L 148.536675 259.117326 
L 152.351598 259.455722 
L 156.273932 259.520817 
L 159.259617 259.378493 
L 162.260926 259.066777 
L 165.257442 258.583856 
L 168.228679 257.930912 
L 171.154533 257.112093 
L 174.015722 256.134428 
L 177.699099 254.601 
L 181.197568 252.832722 
L 184.479687 250.86622 
L 187.521839 248.74337 
L 190.309118 246.509636 
L 192.835859 244.212254 
L 195.634483 241.322662 
L 198.05987 238.49433 
L 200.922671 234.781439 
L 205.523983 228.723718 
L 207.083564 227.058716 
L 208.734747 225.628109 
L 210.550652 224.383977 
L 212.589599 223.261162 
L 215.890378 221.742591 
L 222.803492 218.649859 
L 226.079875 216.950911 
L 229.507216 214.908172 
L 232.306076 212.99336 
L 235.107482 210.81185 
L 237.864321 208.357321 
L 240.528884 205.632845 
L 243.054753 202.650822 
L 245.398634 199.432543 
L 247.013753 196.881192 
L 248.490799 194.228363 
L 249.818155 191.490971 
L 250.986785 188.687451 
L 251.990435 185.837347 
L 253.06665 181.999753 
L 253.8443 178.163741 
L 254.333076 174.376587 
L 254.551611 170.682595 
L 254.526705 167.121374 
L 254.29222 163.726317 
L 253.765032 159.754808 
L 253.058097 156.114525 
L 251.937804 151.588076 
L 250.181767 144.719264 
L 249.820035 142.444286 
L 249.695672 140.256 
L 249.695672 140.256 
" style="fill:none;stroke:#6495ed;stroke-linecap:square;stroke-width:2;"/>
   </g>
   <g id="line2d_5">
    <path clip-path="url(#p14d74c19af)" d="M 48.233801 140.358938 
L 83.750962 140.561003 
L 89.286104 140.371533 
L 93.437461 140.037901 
L 97.127555 139.522732 
L 100.356388 138.835578 
L 103.123959 138.020232 
L 105.89153 136.951659 
L 108.659101 135.607981 
L 112.349196 133.50943 
L 115.116767 132.02209 
L 116.961814 131.299065 
L 118.345599 130.994818 
L 119.729385 130.948076 
L 121.11317 131.189422 
L 122.496956 131.727711 
L 123.880741 132.547736 
L 125.264527 133.610694 
L 127.109574 135.300432 
L 131.260931 139.28576 
L 132.644716 140.343679 
L 134.028502 141.118324 
L 134.951025 141.439692 
L 135.873549 141.582445 
L 136.796073 141.530423 
L 137.718596 141.270162 
L 138.64112 140.790535 
L 139.563644 140.082168 
L 140.486167 139.136687 
L 141.408691 137.945965 
L 142.792477 135.681105 
L 144.176262 132.812426 
L 145.560048 129.303866 
L 146.943833 125.121536 
L 148.327619 120.244353 
L 149.711404 114.677736 
L 151.556451 106.268821 
L 153.86276 94.54975 
L 158.475379 70.585674 
L 160.320426 62.400448 
L 161.704212 57.28184 
L 163.087997 53.216037 
L 164.010521 51.143381 
L 164.933044 49.602354 
L 165.855568 48.599575 
L 166.31683 48.299462 
L 166.778092 48.132129 
L 167.239354 48.095886 
L 167.700615 48.188576 
L 168.161877 48.407609 
L 169.084401 49.21238 
L 170.006925 50.482032 
L 170.929448 52.183434 
L 171.851972 54.279313 
L 173.235757 58.073271 
L 174.619543 62.516049 
L 176.46459 69.183919 
L 179.693423 81.906288 
L 183.383518 96.319374 
L 185.689827 104.547427 
L 187.996136 111.890058 
L 189.841183 117.043729 
L 191.686231 121.527828 
L 193.531278 125.346335 
L 195.376325 128.530643 
L 196.760111 130.534718 
L 198.143896 132.241207 
L 199.527682 133.681566 
L 201.372729 135.24332 
L 203.217776 136.461516 
L 205.062824 137.40152 
L 206.907871 138.119266 
L 209.21418 138.77309 
L 211.981751 139.292205 
L 215.210584 139.649709 
L 219.823202 139.90464 
L 227.664654 140.075059 
L 232.277272 140.117742 
L 232.277272 140.117742 
" style="fill:none;stroke:#000000;stroke-linecap:square;stroke-width:2;"/>
   </g>
   <g id="text_1">
    <!-- $z\:{\rmELDA}$ -->
    <defs>
     <path d="M 38 41.703125 
L 9.09375 7.296875 
Q 13.703125 6.296875 15.953125 4.796875 
Q 18.203125 3.296875 21.09375 -1 
Q 24.5 -6 28.09375 -6 
Q 30.796875 -6 30.796875 -4.5 
Q 30.796875 -4 30.296875 -3 
Q 29.5 -1.40625 29.5 -0.203125 
Q 29.59375 1.09375 30.59375 2.140625 
Q 31.59375 3.203125 32.796875 3.203125 
Q 34.40625 3.203125 35.34375 2.203125 
Q 36.296875 1.203125 36.296875 -0.5 
Q 36.296875 -3.59375 33.6875 -5.84375 
Q 31.09375 -8.09375 27 -8.09375 
Q 22.796875 -8.09375 15.703125 -3.703125 
Q 8.90625 0.5 5.203125 0.5 
Q 2.90625 0.5 0.703125 -1.296875 
L -0.203125 -0.40625 
L 30.796875 36.796875 
L 17.203125 36.796875 
Q 13.203125 36.796875 11.390625 35.640625 
Q 9.59375 34.5 8.09375 30.796875 
L 6.5 31.203125 
L 9.703125 42.796875 
L 38 42.796875 
z
" id="STIXGeneral-Italic-122"/>
     <path d="M 59.703125 16.90625 
L 55.09375 0 
L 1.203125 0 
L 1.203125 1.90625 
Q 6.90625 2.296875 8.40625 3.9375 
Q 9.90625 5.59375 9.90625 11.40625 
L 9.90625 55 
Q 9.90625 60.59375 8.34375 62.296875 
Q 6.796875 64 1.203125 64.296875 
L 1.203125 66.203125 
L 54.203125 66.203125 
L 54.59375 51.90625 
L 52.09375 51.90625 
Q 51 58.59375 48.203125 60.5 
Q 45.40625 62.40625 36.703125 62.40625 
L 23.59375 62.40625 
Q 21.40625 62.40625 20.75 61.75 
Q 20.09375 61.09375 20.09375 58.796875 
L 20.09375 36.796875 
L 35.203125 36.796875 
Q 41.5 36.796875 43.546875 38.59375 
Q 45.59375 40.40625 46.5 46.40625 
L 48.796875 46.40625 
L 48.796875 23 
L 46.5 23 
Q 45.59375 29.296875 43.59375 31 
Q 41.59375 32.703125 35.203125 32.703125 
L 20.09375 32.703125 
L 20.09375 8.40625 
Q 20.09375 5.40625 22.1875 4.546875 
Q 24.296875 3.703125 30.203125 3.703125 
L 33.796875 3.703125 
Q 44.5 3.703125 49 6.296875 
Q 53.5 8.90625 56.90625 16.90625 
z
" id="STIXGeneral-Regular-69"/>
     <path d="M 59.796875 17.40625 
L 55 0 
L 1.203125 0 
L 1.203125 1.90625 
Q 6.703125 2.203125 8.296875 4 
Q 9.90625 5.796875 9.90625 11.5 
L 9.90625 54.59375 
Q 9.90625 60.5 8.453125 62.203125 
Q 7 63.90625 1.203125 64.296875 
L 1.203125 66.203125 
L 29.5 66.203125 
L 29.5 64.296875 
Q 23.40625 63.90625 21.75 62.25 
Q 20.09375 60.59375 20.09375 54.796875 
L 20.09375 8.40625 
Q 20.09375 5.59375 21.84375 4.75 
Q 23.59375 3.90625 29.09375 3.90625 
L 36.09375 3.90625 
Q 48.203125 3.90625 53 10 
Q 55 12.703125 57.203125 17.40625 
z
" id="STIXGeneral-Regular-76"/>
     <path d="M 1.59375 66.203125 
L 28.59375 66.203125 
Q 48.09375 66.203125 58.59375 57.09375 
Q 68.5 48.59375 68.5 33.40625 
Q 68.5 15.09375 54.90625 6.40625 
Q 45 0 29.703125 0 
L 1.59375 0 
L 1.59375 1.90625 
Q 7.40625 2.296875 8.90625 3.9375 
Q 10.40625 5.59375 10.40625 11.5 
L 10.40625 55 
Q 10.40625 60.796875 8.90625 62.34375 
Q 7.40625 63.90625 1.59375 64.296875 
z
M 20.59375 58.296875 
L 20.59375 8.40625 
Q 20.59375 5.703125 21.546875 4.703125 
Q 22.5 3.703125 25.40625 3.703125 
Q 33.203125 3.703125 38 4.796875 
Q 42.796875 5.90625 47.203125 8.90625 
Q 57.59375 15.90625 57.59375 32.796875 
Q 57.59375 47.296875 48.09375 55.59375 
Q 43.796875 59.40625 38.6875 60.953125 
Q 33.59375 62.5 25.90625 62.5 
Q 23 62.5 21.796875 61.59375 
Q 20.59375 60.703125 20.59375 58.296875 
z
" id="STIXGeneral-Regular-68"/>
     <path d="M 70.703125 0 
L 45.203125 0 
L 45.203125 1.90625 
Q 49.203125 1.90625 50.703125 2.796875 
Q 52.09375 3.5 52.09375 5.203125 
Q 52.09375 7.796875 50.203125 12.203125 
L 46.09375 21.59375 
L 19.90625 21.59375 
L 15.296875 10.203125 
Q 14.40625 7.90625 14.40625 6 
Q 14.40625 3.703125 16.046875 2.796875 
Q 17.703125 1.90625 21.40625 1.90625 
L 21.40625 0 
L 1.5 0 
L 1.5 1.90625 
Q 5.703125 2.296875 7.59375 4.9375 
Q 9.5 7.59375 14.09375 18.59375 
L 34.703125 67.40625 
L 36.703125 67.40625 
L 61.296875 11.09375 
Q 63.5 5.90625 65.25 4.09375 
Q 67 2.296875 70.703125 1.90625 
z
M 44.703125 25.703125 
L 33.09375 53.203125 
L 21.59375 25.703125 
z
" id="STIXGeneral-Regular-65"/>
    </defs>
    <g transform="translate(75.855836 202.79715)scale(0.4 -0.4)">
     <use transform="translate(0 0.59375)" xlink:href="#STIXGeneral-Italic-122"/>
     <use transform="translate(54.944274 0.59375)" xlink:href="#STIXGeneral-Regular-69"/>
     <use transform="translate(116.044265 0.59375)" xlink:href="#STIXGeneral-Regular-76"/>
     <use transform="translate(177.144256 0.59375)" xlink:href="#STIXGeneral-Regular-68"/>
     <use transform="translate(249.344237 0.59375)" xlink:href="#STIXGeneral-Regular-65"/>
    </g>
   </g>
  </g>
 </g>
 <defs>
  <clipPath id="p14d74c19af">
   <rect height="266.112" width="266.111671" x="7.2" y="7.2"/>
  </clipPath>
 </defs>
</svg>
