<?xml version="1.0" encoding="utf-8" standalone="no"?>
<!DOCTYPE svg PUBLIC "-//W3C//DTD SVG 1.1//EN"
  "http://www.w3.org/Graphics/SVG/1.1/DTD/svg11.dtd">
<!-- Created with matplotlib (https://matplotlib.org/) -->
<svg height="345.6pt" version="1.1" viewBox="0 0 460.8 345.6" width="460.8pt" xmlns="http://www.w3.org/2000/svg" xmlns:xlink="http://www.w3.org/1999/xlink">
 <defs>
  <style type="text/css">
*{stroke-linecap:butt;stroke-linejoin:round;}
  </style>
 </defs>
 <g id="figure_1">
  <g id="patch_1">
   <path d="M 0 345.6 
L 460.8 345.6 
L 460.8 0 
L 0 0 
z
" style="fill:none;"/>
  </g>
  <g id="axes_1">
   <g id="PathCollection_1">
    <defs>
     <path d="M 0 5 
C 1.326016 5 2.597899 4.473168 3.535534 3.535534 
C 4.473168 2.597899 5 1.326016 5 0 
C 5 -1.326016 4.473168 -2.597899 3.535534 -3.535534 
C 2.597899 -4.473168 1.326016 -5 0 -5 
C -1.326016 -5 -2.597899 -4.473168 -3.535534 -3.535534 
C -4.473168 -2.597899 -5 -1.326016 -5 0 
C -5 1.326016 -4.473168 2.597899 -3.535534 3.535534 
C -2.597899 4.473168 -1.326016 5 0 5 
z
" id="me1c12fed36" style="stroke:#6495ed;"/>
    </defs>
    <g clip-path="url(#pd05b898796)">
     <use style="fill:#6495ed;stroke:#6495ed;" x="236.16" xlink:href="#me1c12fed36" y="174.528"/>
    </g>
   </g>
   <g id="line2d_1">
    <path clip-path="url(#pd05b898796)" d="M 321.552775 174.528 
L 321.444704 170.233207 
L 321.120765 165.949285 
L 320.581778 161.687077 
L 319.829108 157.457371 
L 318.864658 153.270873 
L 317.690872 149.13818 
L 316.310718 145.069753 
L 314.727692 141.075888 
L 312.945799 137.166696 
L 310.96955 133.352071 
L 308.803948 129.641668 
L 306.454473 126.044879 
L 303.927072 122.570807 
L 301.228143 119.228247 
L 298.364518 116.025659 
L 295.343443 112.971148 
L 292.172567 110.072447 
L 288.859914 107.336892 
L 285.413871 104.771408 
L 281.843159 102.382487 
L 278.156816 100.176178 
L 274.364173 98.158064 
L 270.47483 96.333253 
L 266.49863 94.706365 
L 262.44564 93.281516 
L 258.326116 92.062315 
L 254.150487 91.051846 
L 249.929322 90.252667 
L 245.673304 89.666801 
L 241.393207 89.295732 
L 237.099864 89.140398 
L 232.804141 89.201192 
L 228.516913 89.477961 
L 224.249031 89.970003 
L 220.011297 90.676075 
L 215.814438 91.594388 
L 211.669076 92.722617 
L 207.585705 94.057909 
L 203.574659 95.596881 
L 199.646091 97.33564 
L 195.809946 99.269784 
L 192.075932 101.394417 
L 188.453501 103.704162 
L 184.951823 106.193173 
L 181.57976 108.855149 
L 178.345847 111.683352 
L 175.258271 114.670625 
L 172.324845 117.809405 
L 169.552996 121.091748 
L 166.949739 124.509346 
L 164.521663 128.053549 
L 162.274914 131.715385 
L 160.215179 135.485586 
L 158.347671 139.35461 
L 156.677117 143.312662 
L 155.207747 147.349724 
L 153.943278 151.455579 
L 152.886912 155.619834 
L 152.041322 159.831948 
L 151.408649 164.081259 
L 150.990493 168.357013 
L 150.787914 172.648387 
L 150.801425 176.944518 
L 151.03099 181.234533 
L 151.476029 185.507572 
L 152.135415 189.752821 
L 153.00748 193.959533 
L 154.090017 198.117061 
L 155.380284 202.214882 
L 156.875016 206.242623 
L 158.570431 210.19009 
L 160.462235 214.047291 
L 162.545642 217.804463 
L 164.815378 221.452096 
L 167.265697 224.980958 
L 169.890397 228.382115 
L 172.682836 231.64696 
L 175.635944 234.767229 
L 178.742248 237.735023 
L 181.993884 240.542831 
L 185.382623 243.183546 
L 188.899887 245.650484 
L 192.536773 247.9374 
L 196.284075 250.038507 
L 200.13231 251.948485 
L 204.071735 253.662501 
L 208.092381 255.176216 
L 212.18407 256.485799 
L 216.336446 257.587934 
L 220.538997 258.479833 
L 224.781088 259.159237 
L 229.051981 259.624428 
L 233.340865 259.874227 
L 237.636885 259.908002 
L 241.929166 259.725668 
L 246.206845 259.327687 
L 250.459094 258.715065 
L 254.675149 257.889353 
L 258.84434 256.852642 
L 262.956114 255.607555 
L 267.000063 254.157244 
L 270.965952 252.505379 
L 274.843741 250.656143 
L 278.623616 248.614215 
L 282.29601 246.384764 
L 285.851626 243.973434 
L 289.281466 241.386326 
L 292.576848 238.629991 
L 295.72943 235.711404 
L 298.731234 232.637953 
L 301.574661 229.417418 
L 304.252513 226.057949 
L 306.758014 222.56805 
L 309.084821 218.956555 
L 311.227044 215.232605 
L 313.179262 211.405626 
L 314.936533 207.485304 
L 316.494409 203.481562 
L 317.848947 199.404535 
L 318.996718 195.264541 
L 319.934817 191.07206 
L 320.660871 186.837704 
L 321.17304 182.57219 
L 321.470029 178.286316 
L 321.552775 174.528 
L 321.552775 174.528 
" style="fill:none;stroke:#6495ed;stroke-linecap:square;stroke-width:2;"/>
   </g>
   <g id="line2d_2">
    <path clip-path="url(#pd05b898796)" d="M 313.420129 174.528 
L 313.296386 170.157004 
L 312.925551 165.80001 
L 312.308813 161.470975 
L 311.448147 157.183765 
L 310.346311 152.952113 
L 309.006834 148.789576 
L 307.434006 144.709487 
L 305.632866 140.724916 
L 303.609183 136.848625 
L 301.369441 133.093034 
L 298.920813 129.470171 
L 296.271143 125.991642 
L 293.428919 122.668589 
L 290.403246 119.511658 
L 287.203815 116.53096 
L 283.840875 113.736045 
L 280.325199 111.135865 
L 276.668049 108.738749 
L 272.881139 106.552375 
L 268.9766 104.583748 
L 264.96694 102.839174 
L 260.865002 101.32424 
L 256.683927 100.0438 
L 252.437108 99.001956 
L 248.138148 98.202044 
L 243.800818 97.646627 
L 239.439013 97.337485 
L 235.066704 97.275606 
L 230.697897 97.461191 
L 226.346587 97.893644 
L 222.026712 98.57158 
L 217.75211 99.492827 
L 213.536475 100.654434 
L 209.393309 102.052681 
L 205.335885 103.683088 
L 201.3772 105.540433 
L 197.529935 107.618765 
L 193.806414 109.911428 
L 190.218564 112.411078 
L 186.777878 115.109706 
L 183.495378 117.99867 
L 180.381579 121.068713 
L 177.446454 124.310003 
L 174.699407 127.712157 
L 172.149237 131.264276 
L 169.804113 134.954981 
L 167.671546 138.772451 
L 165.758369 142.704456 
L 164.070709 146.738402 
L 162.613973 150.861367 
L 161.392827 155.060142 
L 160.411183 159.32128 
L 159.672185 163.631128 
L 159.178201 167.975883 
L 158.930813 172.341627 
L 158.930813 176.714373 
L 159.178201 181.080117 
L 159.672185 185.424872 
L 160.411183 189.73472 
L 161.392827 193.995858 
L 162.613973 198.194633 
L 164.070709 202.317598 
L 165.758369 206.351544 
L 167.671546 210.283549 
L 169.804113 214.101019 
L 172.149237 217.791724 
L 174.699407 221.343843 
L 177.446454 224.745997 
L 180.381579 227.987287 
L 183.495378 231.05733 
L 186.777878 233.946294 
L 190.218564 236.644922 
L 193.806414 239.144572 
L 197.529935 241.437235 
L 201.3772 243.515567 
L 205.335885 245.372912 
L 209.393309 247.003319 
L 213.536475 248.401566 
L 217.75211 249.563173 
L 222.026712 250.48442 
L 226.346587 251.162356 
L 230.697897 251.594809 
L 235.066704 251.780394 
L 239.439013 251.718515 
L 243.800818 251.409373 
L 248.138148 250.853956 
L 252.437108 250.054044 
L 256.683927 249.0122 
L 260.865002 247.73176 
L 264.96694 246.216826 
L 268.9766 244.472252 
L 272.881139 242.503625 
L 276.668049 240.317251 
L 280.325199 237.920135 
L 283.840875 235.319955 
L 287.203815 232.52504 
L 290.403246 229.544342 
L 293.428919 226.387411 
L 296.271143 223.064358 
L 298.920813 219.585829 
L 301.369441 215.962966 
L 303.609183 212.207375 
L 305.632866 208.331084 
L 307.434006 204.346513 
L 309.006834 200.266424 
L 310.346311 196.103887 
L 311.448147 191.872235 
L 312.308813 187.585025 
L 312.925551 183.25599 
L 313.296386 178.898996 
L 313.420129 174.528 
L 313.420129 174.528 
" style="fill:none;stroke:#6495ed;stroke-linecap:square;stroke-width:2;"/>
   </g>
   <g id="line2d_3">
    <path clip-path="url(#pd05b898796)" d="M 321.552775 174.528 
L 321.44496 171.669326 
L 321.124846 168.844763 
L 320.602289 166.087098 
L 319.893274 163.426516 
L 319.019274 160.889443 
L 317.734884 157.92423 
L 316.292261 155.21519 
L 314.754955 152.776764 
L 312.876023 150.204397 
L 310.202419 146.990582 
L 307.31586 143.523074 
L 306.253176 141.919941 
L 305.438609 140.263236 
L 304.827852 138.456393 
L 304.275657 136.055482 
L 302.722146 128.572874 
L 301.766811 125.412368 
L 300.699577 122.640057 
L 299.347003 119.798939 
L 298.044471 117.517826 
L 296.541343 115.265682 
L 294.84041 113.076347 
L 292.951026 110.9826 
L 290.888775 109.014869 
L 288.674879 107.20004 
L 286.335378 105.560404 
L 283.900121 104.112786 
L 281.401601 102.867902 
L 278.873686 101.829955 
L 276.350293 100.996491 
L 273.251911 100.227945 
L 270.269229 99.733569 
L 266.909616 99.439861 
L 263.364082 99.389535 
L 254.900005 99.465642 
L 253.074776 99.138541 
L 251.289446 98.562476 
L 249.115321 97.574792 
L 240.607052 93.355866 
L 237.960084 92.367661 
L 235.065086 91.514177 
L 231.945984 90.855875 
L 229.314672 90.505813 
L 226.589578 90.337315 
L 223.800072 90.36751 
L 220.978411 90.607531 
L 218.158485 91.062057 
L 215.374501 91.729117 
L 212.659653 92.600157 
L 210.044831 93.660376 
L 207.557423 94.889308 
L 205.220261 96.261635 
L 202.536031 98.133994 
L 200.133806 100.122138 
L 198.018149 102.160909 
L 195.840321 104.58482 
L 193.463613 107.618765 
L 189.9744 112.199177 
L 188.641833 113.568018 
L 187.192973 114.71187 
L 185.545497 115.697903 
L 183.296985 116.768894 
L 176.744486 119.757226 
L 173.886044 121.36631 
L 171.423944 122.999379 
L 168.952829 124.924579 
L 167.012924 126.681449 
L 165.142334 128.628153 
L 163.373624 130.75513 
L 161.736994 133.046599 
L 160.259089 135.481154 
L 158.961946 138.032581 
L 157.862132 140.670874 
L 156.970093 143.363394 
L 156.289756 146.076145 
L 155.818393 148.7751 
L 155.546745 151.427521 
L 155.46405 154.631987 
L 155.627039 157.666443 
L 155.983111 160.492564 
L 156.580583 163.576282 
L 157.596878 167.560401 
L 158.589231 171.54216 
L 158.856682 173.450297 
L 158.877795 175.296546 
L 158.6498 177.187118 
L 158.110797 179.584251 
L 156.264693 186.978374 
L 155.749529 190.232426 
L 155.502503 193.187384 
L 155.481228 196.32928 
L 155.658429 198.946913 
L 156.028382 201.626561 
L 156.603476 204.336618 
L 157.389739 207.043536 
L 158.386571 209.713138 
L 159.58675 212.311942 
L 160.976704 214.808473 
L 162.537037 217.174483 
L 164.243287 219.386046 
L 166.066889 221.424481 
L 167.976305 223.277059 
L 170.433014 225.322441 
L 172.906285 227.070304 
L 175.808545 228.801563 
L 178.986863 230.39349 
L 186.669304 234.001946 
L 188.176295 235.08448 
L 189.537262 236.372519 
L 191.067255 238.198226 
L 196.882165 245.67423 
L 198.830406 247.712516 
L 201.0602 249.738856 
L 203.576681 251.688446 
L 205.789415 253.149351 
L 208.165994 254.488432 
L 210.687591 255.677385 
L 213.330143 256.692019 
L 216.065282 257.513216 
L 218.861426 258.127691 
L 221.685003 258.528515 
L 224.501761 258.715383 
L 227.278096 258.694617 
L 229.982359 258.478901 
L 232.586085 258.086765 
L 235.662998 257.384888 
L 238.509814 256.499454 
L 241.594015 255.281431 
L 244.730748 253.785795 
L 251.289446 250.493524 
L 253.074776 249.917459 
L 254.900005 249.590358 
L 256.86558 249.477548 
L 260.257129 249.563446 
L 265.337556 249.667602 
L 268.555666 249.505202 
L 271.445084 249.15504 
L 274.480436 248.55558 
L 277.609339 247.667926 
L 280.139184 246.732941 
L 282.656669 245.591416 
L 285.127735 244.244227 
L 287.51904 242.698865 
L 289.799257 240.96917 
L 291.940306 239.074794 
L 293.91844 237.040446 
L 295.715169 234.894925 
L 297.317963 232.669992 
L 298.720725 230.399119 
L 300.194336 227.547458 
L 301.372161 224.740624 
L 302.284562 222.0362 
L 303.090766 218.992667 
L 303.908983 214.951508 
L 304.74117 210.921188 
L 305.324294 209.081092 
L 306.101002 207.405684 
L 307.120575 205.800836 
L 308.639148 203.877677 
L 313.814082 197.612419 
L 315.685062 194.848923 
L 317.173335 192.247292 
L 318.528409 189.381805 
L 319.475363 186.914934 
L 320.269866 184.313081 
L 320.888011 181.600394 
L 321.310974 178.805315 
L 321.525769 175.959485 
L 321.552775 174.528 
L 321.552775 174.528 
" style="fill:none;stroke:#6495ed;stroke-linecap:square;stroke-width:2;"/>
   </g>
   <g id="line2d_4">
    <path clip-path="url(#pd05b898796)" d="M 313.420129 174.528 
L 313.546129 172.668763 
L 313.907577 170.704538 
L 314.889916 166.947523 
L 315.900785 162.837828 
L 316.460522 159.668324 
L 316.764699 156.776499 
L 316.859079 153.686413 
L 316.693942 150.440301 
L 316.348887 147.76673 
L 315.799898 145.058667 
L 315.040136 142.349487 
L 314.069364 139.673363 
L 312.893988 137.063935 
L 311.526808 134.552998 
L 309.98653 132.169266 
L 308.297031 129.93726 
L 306.486423 127.87636 
L 304.585937 126.00007 
L 302.134473 123.924545 
L 299.659965 122.14749 
L 297.225375 120.65234 
L 294.435382 119.185235 
L 290.673023 117.484528 
L 286.922773 115.775625 
L 285.255753 114.798961 
L 283.793193 113.67118 
L 282.454548 112.32299 
L 280.918027 110.418324 
L 275.970127 103.986297 
L 273.696864 101.547825 
L 271.495722 99.517405 
L 269.00768 97.557198 
L 266.816461 96.083218 
L 264.459448 94.727289 
L 261.954763 93.518152 
L 259.325857 92.480571 
L 256.600618 91.634342 
L 253.810293 90.993514 
L 250.988273 90.56583 
L 248.168799 90.352429 
L 245.385628 90.347807 
L 242.670722 90.540054 
L 240.053009 90.911334 
L 236.954816 91.591695 
L 234.083797 92.46146 
L 230.96887 93.669059 
L 227.797489 95.164102 
L 220.582155 98.730517 
L 218.796757 99.242844 
L 216.945415 99.511898 
L 214.573031 99.57654 
L 204.596247 99.487102 
L 201.759171 99.771827 
L 198.762568 100.291844 
L 195.655665 101.089737 
L 193.129883 101.948401 
L 190.603776 103.012218 
L 188.111328 104.282809 
L 185.686305 105.755146 
L 183.36094 107.417721 
L 181.164665 109.252985 
L 179.122971 111.238022 
L 177.256414 113.345442 
L 175.579827 115.544454 
L 174.101758 117.802077 
L 172.535685 120.654936 
L 171.271664 123.481616 
L 170.28364 126.222296 
L 169.405668 129.326378 
L 168.60767 133.049896 
L 167.535928 138.296422 
L 166.939247 140.119624 
L 166.143773 141.785347 
L 165.102698 143.388969 
L 163.559226 145.321951 
L 158.976124 150.812514 
L 157.097778 153.479664 
L 155.582062 155.999836 
L 154.18039 158.787966 
L 153.183306 161.199032 
L 152.328588 163.752835 
L 151.641811 166.427084 
L 151.143805 169.194828 
L 150.849821 172.025487 
L 150.768914 174.886039 
L 150.903585 177.7423 
L 151.249673 180.560252 
L 151.796532 183.307367 
L 152.527448 185.953866 
L 153.42032 188.473871 
L 154.723279 191.414565 
L 156.178281 194.09693 
L 157.721483 196.508119 
L 159.599128 199.049326 
L 162.255944 202.224843 
L 165.102698 205.667031 
L 166.143773 207.270653 
L 166.939247 208.936376 
L 167.535928 210.759578 
L 168.08072 213.186312 
L 169.531948 220.23017 
L 170.460892 223.372353 
L 171.501345 226.134651 
L 172.824164 228.971569 
L 174.101758 231.253923 
L 175.579827 233.511546 
L 177.256414 235.710558 
L 179.122971 237.817978 
L 181.164665 239.803015 
L 183.36094 241.638279 
L 185.686305 243.300854 
L 188.111328 244.773191 
L 190.603776 246.043782 
L 193.129883 247.107599 
L 195.655665 247.966263 
L 198.762568 248.764156 
L 201.759171 249.284173 
L 204.596247 249.568898 
L 207.739238 249.675111 
L 211.855379 249.572197 
L 215.963971 249.488708 
L 217.885729 249.650153 
L 219.691168 250.037484 
L 221.483123 250.677419 
L 223.698089 251.733151 
L 230.485663 255.175471 
L 233.539099 256.403145 
L 236.361501 257.30363 
L 239.416777 258.02647 
L 242.006135 258.439093 
L 244.69931 258.677987 
L 247.468313 258.723941 
L 250.281828 258.563507 
L 253.106426 258.189548 
L 255.907861 257.601535 
L 258.652406 256.805578 
L 261.30816 255.814192 
L 263.84629 254.645801 
L 266.242142 253.324012 
L 268.476188 251.876674 
L 271.020997 249.93835 
L 273.279495 247.91674 
L 275.255206 245.87681 
L 277.280988 243.49093 
L 279.990763 239.891761 
L 282.236776 236.982485 
L 283.563958 235.592724 
L 284.999695 234.432329 
L 286.628031 233.436303 
L 288.849689 232.363961 
L 295.807646 229.177913 
L 298.677992 227.538956 
L 301.143807 225.877515 
L 303.612303 223.922361 
L 305.545374 222.14146 
L 307.404973 220.171567 
L 309.158763 218.023044 
L 310.776925 215.712412 
L 312.233335 213.261726 
L 313.506597 210.697733 
L 314.58088 208.050837 
L 315.446535 205.353916 
L 316.100464 202.641042 
L 316.546226 199.946154 
L 316.793872 197.301737 
L 316.849913 194.112181 
L 316.665099 191.097056 
L 316.201249 187.76021 
L 315.459955 184.297182 
L 313.507925 176.072838 
L 313.420129 174.528 
L 313.420129 174.528 
" style="fill:none;stroke:#6495ed;stroke-linecap:square;stroke-width:2;"/>
   </g>
   <g id="line2d_5">
    <path clip-path="url(#pd05b898796)" d="M 73.832727 174.527936 
L 171.196528 174.60067 
L 197.247043 174.723734 
L 201.805883 174.49741 
L 205.062198 174.118115 
L 207.667249 173.605865 
L 209.946669 172.949642 
L 212.226089 172.050565 
L 214.505509 170.891622 
L 219.064349 168.43283 
L 220.366875 168.042841 
L 221.343769 167.946175 
L 222.320664 168.047259 
L 223.297558 168.357734 
L 224.274452 168.872587 
L 225.576978 169.836693 
L 227.205135 171.348885 
L 230.135818 174.110597 
L 231.438344 174.980158 
L 232.415238 175.363637 
L 233.392133 175.463876 
L 234.369027 175.243956 
L 235.345921 174.675886 
L 236.322816 173.737812 
L 237.29971 172.410121 
L 238.276604 170.671854 
L 239.253499 168.498983 
L 240.230393 165.86593 
L 241.532919 161.603077 
L 242.835445 156.470822 
L 244.463602 148.94265 
L 246.743022 137.065741 
L 249.022442 125.343682 
L 250.324968 119.565257 
L 251.301862 115.951735 
L 252.278756 113.08145 
L 253.255651 111.02692 
L 253.906913 110.128862 
L 254.558176 109.610554 
L 255.209439 109.466838 
L 255.860702 109.686901 
L 256.511965 110.255036 
L 257.163228 111.151357 
L 258.140122 113.059209 
L 259.117017 115.56151 
L 260.419542 119.646867 
L 262.047699 125.598026 
L 268.234697 149.31925 
L 269.862854 154.502839 
L 271.491011 158.97706 
L 273.119168 162.712334 
L 274.421694 165.180289 
L 275.72422 167.217988 
L 277.026746 168.869893 
L 278.329271 170.187841 
L 279.631797 171.225087 
L 281.259954 172.202971 
L 282.888112 172.9057 
L 284.8419 173.481128 
L 287.12132 173.893323 
L 290.052003 174.170001 
L 294.610843 174.345569 
L 304.379787 174.447883 
L 338.571088 174.490225 
L 398.487273 174.489701 
L 398.487273 174.489701 
" style="fill:none;stroke:#000000;stroke-linecap:square;stroke-width:2;"/>
   </g>
   <g id="text_1">
    <!-- $z\:{\rmELDA}$ -->
    <defs>
     <path d="M 38 41.703125 
L 9.09375 7.296875 
Q 13.703125 6.296875 15.953125 4.796875 
Q 18.203125 3.296875 21.09375 -1 
Q 24.5 -6 28.09375 -6 
Q 30.796875 -6 30.796875 -4.5 
Q 30.796875 -4 30.296875 -3 
Q 29.5 -1.40625 29.5 -0.203125 
Q 29.59375 1.09375 30.59375 2.140625 
Q 31.59375 3.203125 32.796875 3.203125 
Q 34.40625 3.203125 35.34375 2.203125 
Q 36.296875 1.203125 36.296875 -0.5 
Q 36.296875 -3.59375 33.6875 -5.84375 
Q 31.09375 -8.09375 27 -8.09375 
Q 22.796875 -8.09375 15.703125 -3.703125 
Q 8.90625 0.5 5.203125 0.5 
Q 2.90625 0.5 0.703125 -1.296875 
L -0.203125 -0.40625 
L 30.796875 36.796875 
L 17.203125 36.796875 
Q 13.203125 36.796875 11.390625 35.640625 
Q 9.59375 34.5 8.09375 30.796875 
L 6.5 31.203125 
L 9.703125 42.796875 
L 38 42.796875 
z
" id="STIXGeneral-Italic-122"/>
     <path d="M 59.703125 16.90625 
L 55.09375 0 
L 1.203125 0 
L 1.203125 1.90625 
Q 6.90625 2.296875 8.40625 3.9375 
Q 9.90625 5.59375 9.90625 11.40625 
L 9.90625 55 
Q 9.90625 60.59375 8.34375 62.296875 
Q 6.796875 64 1.203125 64.296875 
L 1.203125 66.203125 
L 54.203125 66.203125 
L 54.59375 51.90625 
L 52.09375 51.90625 
Q 51 58.59375 48.203125 60.5 
Q 45.40625 62.40625 36.703125 62.40625 
L 23.59375 62.40625 
Q 21.40625 62.40625 20.75 61.75 
Q 20.09375 61.09375 20.09375 58.796875 
L 20.09375 36.796875 
L 35.203125 36.796875 
Q 41.5 36.796875 43.546875 38.59375 
Q 45.59375 40.40625 46.5 46.40625 
L 48.796875 46.40625 
L 48.796875 23 
L 46.5 23 
Q 45.59375 29.296875 43.59375 31 
Q 41.59375 32.703125 35.203125 32.703125 
L 20.09375 32.703125 
L 20.09375 8.40625 
Q 20.09375 5.40625 22.1875 4.546875 
Q 24.296875 3.703125 30.203125 3.703125 
L 33.796875 3.703125 
Q 44.5 3.703125 49 6.296875 
Q 53.5 8.90625 56.90625 16.90625 
z
" id="STIXGeneral-Regular-69"/>
     <path d="M 59.796875 17.40625 
L 55 0 
L 1.203125 0 
L 1.203125 1.90625 
Q 6.703125 2.203125 8.296875 4 
Q 9.90625 5.796875 9.90625 11.5 
L 9.90625 54.59375 
Q 9.90625 60.5 8.453125 62.203125 
Q 7 63.90625 1.203125 64.296875 
L 1.203125 66.203125 
L 29.5 66.203125 
L 29.5 64.296875 
Q 23.40625 63.90625 21.75 62.25 
Q 20.09375 60.59375 20.09375 54.796875 
L 20.09375 8.40625 
Q 20.09375 5.59375 21.84375 4.75 
Q 23.59375 3.90625 29.09375 3.90625 
L 36.09375 3.90625 
Q 48.203125 3.90625 53 10 
Q 55 12.703125 57.203125 17.40625 
z
" id="STIXGeneral-Regular-76"/>
     <path d="M 1.59375 66.203125 
L 28.59375 66.203125 
Q 48.09375 66.203125 58.59375 57.09375 
Q 68.5 48.59375 68.5 33.40625 
Q 68.5 15.09375 54.90625 6.40625 
Q 45 0 29.703125 0 
L 1.59375 0 
L 1.59375 1.90625 
Q 7.40625 2.296875 8.90625 3.9375 
Q 10.40625 5.59375 10.40625 11.5 
L 10.40625 55 
Q 10.40625 60.796875 8.90625 62.34375 
Q 7.40625 63.90625 1.59375 64.296875 
z
M 20.59375 58.296875 
L 20.59375 8.40625 
Q 20.59375 5.703125 21.546875 4.703125 
Q 22.5 3.703125 25.40625 3.703125 
Q 33.203125 3.703125 38 4.796875 
Q 42.796875 5.90625 47.203125 8.90625 
Q 57.59375 15.90625 57.59375 32.796875 
Q 57.59375 47.296875 48.09375 55.59375 
Q 43.796875 59.40625 38.6875 60.953125 
Q 33.59375 62.5 25.90625 62.5 
Q 23 62.5 21.796875 61.59375 
Q 20.59375 60.703125 20.59375 58.296875 
z
" id="STIXGeneral-Regular-68"/>
     <path d="M 70.703125 0 
L 45.203125 0 
L 45.203125 1.90625 
Q 49.203125 1.90625 50.703125 2.796875 
Q 52.09375 3.5 52.09375 5.203125 
Q 52.09375 7.796875 50.203125 12.203125 
L 46.09375 21.59375 
L 19.90625 21.59375 
L 15.296875 10.203125 
Q 14.40625 7.90625 14.40625 6 
Q 14.40625 3.703125 16.046875 2.796875 
Q 17.703125 1.90625 21.40625 1.90625 
L 21.40625 0 
L 1.5 0 
L 1.5 1.90625 
Q 5.703125 2.296875 7.59375 4.9375 
Q 9.5 7.59375 14.09375 18.59375 
L 34.703125 67.40625 
L 36.703125 67.40625 
L 61.296875 11.09375 
Q 63.5 5.90625 65.25 4.09375 
Q 67 2.296875 70.703125 1.90625 
z
M 44.703125 25.703125 
L 33.09375 53.203125 
L 21.59375 25.703125 
z
" id="STIXGeneral-Regular-65"/>
    </defs>
    <g transform="translate(187.86 219.089837)scale(0.3 -0.3)">
     <use transform="translate(0 0.59375)" xlink:href="#STIXGeneral-Italic-122"/>
     <use transform="translate(54.944274 0.59375)" xlink:href="#STIXGeneral-Regular-69"/>
     <use transform="translate(116.044265 0.59375)" xlink:href="#STIXGeneral-Regular-76"/>
     <use transform="translate(177.144256 0.59375)" xlink:href="#STIXGeneral-Regular-68"/>
     <use transform="translate(249.344237 0.59375)" xlink:href="#STIXGeneral-Regular-65"/>
    </g>
   </g>
  </g>
 </g>
 <defs>
  <clipPath id="pd05b898796">
   <rect height="187.863872" width="357.12" x="57.6" y="80.596064"/>
  </clipPath>
 </defs>
</svg>
